<svg width="75" height="74" viewBox="0 0 75 74" fill="none" xmlns="http://www.w3.org/2000/svg">
<rect x="0.125" width="74" height="74" rx="37" fill="url(#paint0_linear_1038_5928)"/>
<g clip-path="url(#clip0_1038_5928)">
<path d="M14.4044 13.897H38.4338C39.2427 13.897 39.9044 14.5588 39.9044 15.3676V47.9559H12.9338V15.3676C12.9338 14.5588 13.5956 13.897 14.4044 13.897Z" fill="#517D7B"/>
<path d="M21.1396 16.9265H16.1984C15.8979 16.9265 15.6543 17.1701 15.6543 17.4706V23.897C15.6543 24.1975 15.8979 24.4412 16.1984 24.4412H21.1396C21.4401 24.4412 21.6837 24.1975 21.6837 23.897V17.4706C21.6837 17.1701 21.4401 16.9265 21.1396 16.9265Z" fill="#7D9E9C"/>
<path d="M36.6691 16.9265H31.728C31.4274 16.9265 31.1838 17.1701 31.1838 17.4706V23.897C31.1838 24.1975 31.4274 24.4412 31.728 24.4412H36.6691C36.9696 24.4412 37.2132 24.1975 37.2132 23.897V17.4706C37.2132 17.1701 36.9696 16.9265 36.6691 16.9265Z" fill="#7D9E9C"/>
<path d="M28.9045 16.9265H23.9633C23.6628 16.9265 23.4192 17.1701 23.4192 17.4706V23.897C23.4192 24.1975 23.6628 24.4412 23.9633 24.4412H28.9045C29.205 24.4412 29.4486 24.1975 29.4486 23.897V17.4706C29.4486 17.1701 29.205 16.9265 28.9045 16.9265Z" fill="#7D9E9C"/>
<path d="M21.1396 26.1617H16.1984C15.8979 26.1617 15.6543 26.4054 15.6543 26.7059V33.1323C15.6543 33.4328 15.8979 33.6765 16.1984 33.6765H21.1396C21.4401 33.6765 21.6837 33.4328 21.6837 33.1323V26.7059C21.6837 26.4054 21.4401 26.1617 21.1396 26.1617Z" fill="#7D9E9C"/>
<path opacity="0.35" d="M36.6691 26.1617H31.728C31.4274 26.1617 31.1838 26.4054 31.1838 26.7059V33.1323C31.1838 33.4328 31.4274 33.6765 31.728 33.6765H36.6691C36.9696 33.6765 37.2132 33.4328 37.2132 33.1323V26.7059C37.2132 26.4054 36.9696 26.1617 36.6691 26.1617Z" fill="#CCCCCC"/>
<path d="M28.9045 26.1617H23.9633C23.6628 26.1617 23.4192 26.4054 23.4192 26.7059V33.1323C23.4192 33.4328 23.6628 33.6765 23.9633 33.6765H28.9045C29.205 33.6765 29.4486 33.4328 29.4486 33.1323V26.7059C29.4486 26.4054 29.205 26.1617 28.9045 26.1617Z" fill="#7D9E9C"/>
<path d="M21.1396 35.397H16.1984C15.8979 35.397 15.6543 35.6406 15.6543 35.9412V42.3676C15.6543 42.6681 15.8979 42.9117 16.1984 42.9117H21.1396C21.4401 42.9117 21.6837 42.6681 21.6837 42.3676V35.9412C21.6837 35.6406 21.4401 35.397 21.1396 35.397Z" fill="#7D9E9C"/>
<path opacity="0.35" d="M36.6691 35.397H31.728C31.4274 35.397 31.1838 35.6406 31.1838 35.9412V42.3676C31.1838 42.6681 31.4274 42.9117 31.728 42.9117H36.6691C36.9696 42.9117 37.2132 42.6681 37.2132 42.3676V35.9412C37.2132 35.6406 36.9696 35.397 36.6691 35.397Z" fill="#CCCCCC"/>
<path d="M23.9633 35.397H28.9191C29.2132 35.397 29.4632 35.6323 29.4632 35.9412V47.9559H23.4338V35.9412C23.4338 35.647 23.6691 35.397 23.978 35.397H23.9633Z" fill="#345756"/>
<path d="M40.2426 12H12.6103C12.3423 12 12.125 12.2173 12.125 12.4853V14.9559C12.125 15.2239 12.3423 15.4412 12.6103 15.4412H40.2426C40.5107 15.4412 40.7279 15.2239 40.7279 14.9559V12.4853C40.7279 12.2173 40.5107 12 40.2426 12Z" fill="#2D5B59"/>
<path d="M28.1102 40.147H27.9631C27.6545 40.147 27.4043 40.3972 27.4043 40.7059V42.6617C27.4043 42.9704 27.6545 43.2206 27.9631 43.2206H28.1102C28.4188 43.2206 28.669 42.9704 28.669 42.6617V40.7059C28.669 40.3972 28.4188 40.147 28.1102 40.147Z" fill="#7D9E9C"/>
<path d="M31.816 24.2206H58.669C59.4778 24.2206 60.1396 24.8824 60.1396 25.6912V61.8236H30.3455V25.6912C30.3455 24.8824 31.0072 24.2206 31.816 24.2206Z" fill="#C4E4E2"/>
<path d="M39.478 27.5441H33.9045C33.604 27.5441 33.3604 27.7877 33.3604 28.0883V35.2941C33.3604 35.5946 33.604 35.8383 33.9045 35.8383H39.478C39.7785 35.8383 40.0221 35.5946 40.0221 35.2941V28.0883C40.0221 27.7877 39.7785 27.5441 39.478 27.5441Z" fill="#7D9E9C"/>
<path d="M56.625 27.5441H51.0514C50.7509 27.5441 50.5073 27.7877 50.5073 28.0883V35.2941C50.5073 35.5946 50.7509 35.8383 51.0514 35.8383H56.625C56.9255 35.8383 57.1691 35.5946 57.1691 35.2941V28.0883C57.1691 27.7877 56.9255 27.5441 56.625 27.5441Z" fill="#7D9E9C"/>
<path d="M48.0515 27.5441H42.478C42.1774 27.5441 41.9338 27.7877 41.9338 28.0883V35.2941C41.9338 35.5946 42.1774 35.8383 42.478 35.8383H48.0515C48.352 35.8383 48.5956 35.5946 48.5956 35.2941V28.0883C48.5956 27.7877 48.352 27.5441 48.0515 27.5441Z" fill="#7D9E9C"/>
<path d="M39.478 37.75H33.9045C33.604 37.75 33.3604 37.9936 33.3604 38.2941V45.5C33.3604 45.8005 33.604 46.0441 33.9045 46.0441H39.478C39.7785 46.0441 40.0221 45.8005 40.0221 45.5V38.2941C40.0221 37.9936 39.7785 37.75 39.478 37.75Z" fill="#7D9E9C"/>
<path d="M56.625 37.75H51.0514C50.7509 37.75 50.5073 37.9936 50.5073 38.2941V45.5C50.5073 45.8005 50.7509 46.0441 51.0514 46.0441H56.625C56.9255 46.0441 57.1691 45.8005 57.1691 45.5V38.2941C57.1691 37.9936 56.9255 37.75 56.625 37.75Z" fill="#7D9E9C"/>
<path d="M48.0515 37.75H42.478C42.1774 37.75 41.9338 37.9936 41.9338 38.2941V45.5C41.9338 45.8005 42.1774 46.0441 42.478 46.0441H48.0515C48.352 46.0441 48.5956 45.8005 48.5956 45.5V38.2941C48.5956 37.9936 48.352 37.75 48.0515 37.75Z" fill="#7D9E9C"/>
<path d="M39.478 47.9559H33.9045C33.604 47.9559 33.3604 48.1995 33.3604 48.5V55.7059C33.3604 56.0064 33.604 56.25 33.9045 56.25H39.478C39.7785 56.25 40.0221 56.0064 40.0221 55.7059V48.5C40.0221 48.1995 39.7785 47.9559 39.478 47.9559Z" fill="#7D9E9C"/>
<path d="M56.625 47.9559H51.0514C50.7509 47.9559 50.5073 48.1995 50.5073 48.5V55.7059C50.5073 56.0064 50.7509 56.25 51.0514 56.25H56.625C56.9255 56.25 57.1691 56.0064 57.1691 55.7059V48.5C57.1691 48.1995 56.9255 47.9559 56.625 47.9559Z" fill="#7D9E9C"/>
<path d="M42.478 47.9559H48.0515C48.3456 47.9559 48.5956 48.1912 48.5956 48.5V61.8236H41.9338V48.5C41.9338 48.2059 42.1691 47.9559 42.478 47.9559Z" fill="#4D8985"/>
<path d="M60.5367 22.1177H29.9338C29.6658 22.1177 29.4485 22.335 29.4485 22.603V25.4265C29.4485 25.6945 29.6658 25.9118 29.9338 25.9118H60.5367C60.8047 25.9118 61.022 25.6945 61.022 25.4265V22.603C61.022 22.335 60.8047 22.1177 60.5367 22.1177Z" fill="#3F716E"/>
<path d="M47.169 53.1912H46.8896C46.581 53.1912 46.3308 53.4414 46.3308 53.75V56.0147C46.3308 56.3234 46.581 56.5736 46.8896 56.5736H47.169C47.4777 56.5736 47.7279 56.3234 47.7279 56.0147V53.75C47.7279 53.4414 47.4777 53.1912 47.169 53.1912Z" fill="#C4E4E2"/>
</g>
<defs>
<linearGradient id="paint0_linear_1038_5928" x1="37.125" y1="0" x2="37.125" y2="74" gradientUnits="userSpaceOnUse">
<stop stop-color="#0C2726"/>
<stop offset="1" stop-color="#194845"/>
</linearGradient>
<clipPath id="clip0_1038_5928">
<rect width="50" height="50" fill="white" transform="translate(12.125 12)"/>
</clipPath>
</defs>
</svg>
