<svg width="75" height="74" viewBox="0 0 75 74" fill="none" xmlns="http://www.w3.org/2000/svg">
<rect x="0.875" width="74" height="74" rx="37" fill="url(#paint0_linear_1038_6183)"/>
<g clip-path="url(#clip0_1038_6183)">
<path d="M53.1545 18.5736C54.8898 18.5736 56.3016 19.9853 56.3016 21.7206V52.2794C56.3016 54.0147 54.8898 55.4265 53.1545 55.4265H22.5957C20.8604 55.4265 19.4486 54.0147 19.4486 52.2794V21.7206C19.4486 19.9853 20.8604 18.5736 22.5957 18.5736H53.1545ZM53.1545 17.103H22.5957C20.0516 17.103 17.978 19.1765 17.978 21.7206V52.2794C17.978 54.8236 20.0516 56.8971 22.5957 56.8971H53.1545C55.6986 56.8971 57.7721 54.8236 57.7721 52.2794V21.7206C57.7721 19.1765 55.6986 17.103 53.1545 17.103Z" fill="#452D79"/>
<path fill-rule="evenodd" clip-rule="evenodd" d="M28.8802 47.2111L19.939 56.1523L18.8992 55.1124L27.8403 46.1713L28.8802 47.2111Z" fill="#452D79"/>
<path fill-rule="evenodd" clip-rule="evenodd" d="M48.718 46.0826L57.6738 55.0238L56.6348 56.0645L47.679 47.1233L48.718 46.0826Z" fill="#452D79"/>
<path fill-rule="evenodd" clip-rule="evenodd" d="M47.679 26.8767L56.6348 17.9355L57.6738 18.9763L48.718 27.9174L47.679 26.8767Z" fill="#452D79"/>
<path fill-rule="evenodd" clip-rule="evenodd" d="M27.8403 28.0053L18.8992 19.0641L19.939 18.0242L28.8802 26.9654L27.8403 28.0053Z" fill="#452D79"/>
<path d="M37.8751 51.9559C46.135 51.9559 52.8309 45.2599 52.8309 37C52.8309 28.7401 46.135 22.0441 37.8751 22.0441C29.6152 22.0441 22.9192 28.7401 22.9192 37C22.9192 45.2599 29.6152 51.9559 37.8751 51.9559Z" fill="#B193EF"/>
<path d="M37.875 23.5147C45.3161 23.5147 51.3602 29.5735 51.3602 37C51.3602 44.4265 45.3014 50.4853 37.875 50.4853C30.4485 50.4853 24.3897 44.4265 24.3897 37C24.3897 29.5735 30.4485 23.5147 37.875 23.5147ZM37.875 20.5735C28.8014 20.5735 21.4485 27.9265 21.4485 37C21.4485 46.0735 28.8014 53.4265 37.875 53.4265C46.9485 53.4265 54.3014 46.0735 54.3014 37C54.3014 27.9265 46.9485 20.5735 37.875 20.5735Z" fill="#6F53A7"/>
<path d="M44.4779 39.4412C43.4338 38.397 41.7426 38.397 40.6985 39.4412L40.0367 40.1029L34.5073 34.5735L35.169 33.9117C36.2132 32.8676 36.2132 31.1765 35.169 30.1323L32.4485 27.4117L29.4926 30.3676C28.1102 31.75 28.1102 33.9853 29.4926 35.3676L29.6985 35.5735C29.6985 35.5735 29.7279 35.6029 29.7426 35.6029C29.7426 35.6029 29.7573 35.6323 29.772 35.647L39.6102 45.4853C39.6102 45.4853 39.6249 45.4853 39.6396 45.5C39.6396 45.5 39.6396 45.5147 39.6543 45.5294L39.9338 45.8088C40.9926 46.8676 42.7132 46.8676 43.772 45.8088L47.3161 42.2647L44.4779 39.4265V39.4412Z" fill="#6F53A7"/>
<path d="M56.0661 25.6176C59.8266 25.6176 62.875 22.5692 62.875 18.8088C62.875 15.0484 59.8266 12 56.0661 12C52.3057 12 49.2573 15.0484 49.2573 18.8088C49.2573 22.5692 52.3057 25.6176 56.0661 25.6176Z" fill="#6F53A7"/>
<path d="M58.8896 19.8529C58.4484 19.4118 57.7131 19.4118 57.2719 19.8529L56.9925 20.1323L54.6249 17.7647L54.9043 17.4853C55.3454 17.0441 55.3454 16.3088 54.9043 15.8676L53.7425 14.7059L52.4778 15.9706C51.8896 16.5588 51.8896 17.5294 52.4778 18.1176L52.566 18.2059C52.566 18.2059 52.566 18.2059 52.5807 18.2206C52.5807 18.2206 52.5807 18.2206 52.5954 18.2353L56.816 22.4559L56.9337 22.5735C57.3896 23.0294 58.1249 23.0294 58.5807 22.5735L60.0954 21.0588L58.8749 19.8382L58.8896 19.8529Z" fill="#B193EF"/>
<path d="M19.6838 25.6176C23.4442 25.6176 26.4926 22.5692 26.4926 18.8088C26.4926 15.0484 23.4442 12 19.6838 12C15.9234 12 12.875 15.0484 12.875 18.8088C12.875 22.5692 15.9234 25.6176 19.6838 25.6176Z" fill="#6F53A7"/>
<path d="M22.5072 19.8529C22.0661 19.4118 21.3308 19.4118 20.8896 19.8529L20.6102 20.1323L18.2425 17.7647L18.5219 17.4853C18.9631 17.0441 18.9631 16.3088 18.5219 15.8676L17.3602 14.7059L16.0955 15.9706C15.5072 16.5588 15.5072 17.5294 16.0955 18.1176L16.1837 18.2059C16.1837 18.2059 16.1837 18.2059 16.1984 18.2206C16.1984 18.2206 16.1984 18.2206 16.2131 18.2353L20.4337 22.4559L20.5514 22.5735C21.0072 23.0294 21.7425 23.0294 22.1984 22.5735L23.7131 21.0588L22.4925 19.8382L22.5072 19.8529Z" fill="#B193EF"/>
<path d="M56.0661 62C59.8266 62 62.875 58.9516 62.875 55.1911C62.875 51.4307 59.8266 48.3823 56.0661 48.3823C52.3057 48.3823 49.2573 51.4307 49.2573 55.1911C49.2573 58.9516 52.3057 62 56.0661 62Z" fill="#6F53A7"/>
<path d="M58.8896 56.2353C58.4484 55.7941 57.7131 55.7941 57.2719 56.2353L56.9925 56.5147L54.6249 54.147L54.9043 53.8676C55.3454 53.4264 55.3454 52.6911 54.9043 52.25L53.7425 51.0882L52.4778 52.3529C51.8896 52.9411 51.8896 53.9117 52.4778 54.5L52.566 54.5882C52.566 54.5882 52.566 54.5882 52.5807 54.6029C52.5807 54.6029 52.5807 54.6029 52.5954 54.6176L56.816 58.8382L56.9337 58.9558C57.3896 59.4117 58.1249 59.4117 58.5807 58.9558L60.0954 57.4411L58.8749 56.2205L58.8896 56.2353Z" fill="#B193EF"/>
<path d="M19.6838 62C23.4442 62 26.4926 58.9516 26.4926 55.1911C26.4926 51.4307 23.4442 48.3823 19.6838 48.3823C15.9234 48.3823 12.875 51.4307 12.875 55.1911C12.875 58.9516 15.9234 62 19.6838 62Z" fill="#6F53A7"/>
<path d="M22.5072 56.2353C22.0661 55.7941 21.3308 55.7941 20.8896 56.2353L20.6102 56.5147L18.2425 54.147L18.5219 53.8676C18.9631 53.4264 18.9631 52.6911 18.5219 52.25L17.3602 51.0882L16.0955 52.3529C15.5072 52.9411 15.5072 53.9117 16.0955 54.5L16.1837 54.5882C16.1837 54.5882 16.1837 54.5882 16.1984 54.6029C16.1984 54.6029 16.1984 54.6029 16.2131 54.6176L20.4337 58.8382L20.5514 58.9558C21.0072 59.4117 21.7425 59.4117 22.1984 58.9558L23.7131 57.4411L22.4925 56.2205L22.5072 56.2353Z" fill="#B193EF"/>
</g>
<defs>
<linearGradient id="paint0_linear_1038_6183" x1="37.875" y1="0" x2="37.875" y2="74" gradientUnits="userSpaceOnUse">
<stop stop-color="#241445"/>
<stop offset="1" stop-color="#392366"/>
</linearGradient>
<clipPath id="clip0_1038_6183">
<rect width="50" height="50" fill="white" transform="translate(12.875 12)"/>
</clipPath>
</defs>
</svg>
