<svg width="75" height="74" viewBox="0 0 75 74" fill="none" xmlns="http://www.w3.org/2000/svg">
<rect x="0.125" width="74" height="74" rx="37" fill="url(#paint0_linear_1038_2796)"/>
<g clip-path="url(#clip0_1038_2796)">
<path fill-rule="evenodd" clip-rule="evenodd" d="M34.1396 15.75H43.3161C48.0749 15.75 52.0073 19.4678 52.0073 24.1471V33.7059H49.8014V24.1471C49.8014 20.7675 46.9397 17.9559 43.3161 17.9559H34.1396V15.75Z" fill="#94695C"/>
<path fill-rule="evenodd" clip-rule="evenodd" d="M23.8308 51.0441V41.2794H26.0367V51.0441C26.0367 54.3372 29.4641 57.3971 34.2426 57.3971H45.5073V59.6029H34.2426C28.7269 59.6029 23.8308 55.9864 23.8308 51.0441Z" fill="#94695C"/>
<path d="M49.125 57.8676C42.0515 57.8676 36.3162 52.1176 36.3162 45.0441C36.3162 37.9706 42.0662 32.2206 49.125 32.2206C56.1838 32.2206 61.9485 37.9706 61.9485 45.0441C61.9485 52.1176 56.1985 57.8676 49.125 57.8676ZM49.125 34.1912C43.1397 34.1912 38.272 39.0588 38.272 45.0441C38.272 51.0294 43.1397 55.897 49.125 55.897C55.1103 55.897 59.9779 51.0294 59.9779 45.0441C59.9779 39.0588 55.1103 34.1912 49.125 34.1912Z" fill="#63463D"/>
<path d="M49.1249 53.4559C44.4925 53.4559 40.7131 49.6764 40.7131 45.0441C40.7131 40.4117 44.4925 36.6323 49.1249 36.6323C53.7573 36.6323 57.5367 40.4117 57.5367 45.0441C57.5367 49.6764 53.7573 53.4559 49.1249 53.4559ZM49.1249 38.5882C45.5661 38.5882 42.669 41.4853 42.669 45.0441C42.669 48.6029 45.5661 51.5 49.1249 51.5C52.6837 51.5 55.5808 48.6029 55.5808 45.0441C55.5808 41.4853 52.6837 38.5882 49.1249 38.5882Z" fill="#9A7469"/>
<path d="M49.1396 45.9265C48.5955 46.3235 48.0514 46.7206 47.5073 47.1176C46.2867 51.2206 45.0514 55.3088 43.8308 59.4117C42.7426 60.2059 41.669 61.0147 40.5808 61.8088C46.272 61.8382 51.9632 61.8823 57.6543 61.9117C56.669 61.0735 55.6838 60.2353 54.6838 59.4117C53.3749 55.3382 52.0808 51.2794 50.772 47.2059C50.2279 46.7794 49.669 46.3529 49.1249 45.9265H49.1396Z" fill="#C5978A"/>
<path d="M49.1398 49.0882C50.886 49.0882 52.3016 47.6727 52.3016 45.9265C52.3016 44.1803 50.886 42.7647 49.1398 42.7647C47.3936 42.7647 45.978 44.1803 45.978 45.9265C45.978 47.6727 47.3936 49.0882 49.1398 49.0882Z" fill="#F5D2C6"/>
<path d="M46.3897 56.0441C48.3897 56.5735 50.3897 57.1029 52.3897 57.6324C50.0956 58.3088 47.7868 58.9706 45.4927 59.6471C45.8015 58.4559 46.0956 57.25 46.4044 56.0588L46.3897 56.0441Z" fill="#946B5E"/>
<path d="M52.9779 58.5147C51.0956 59.3529 49.1985 60.2059 47.3162 61.0441C49.6985 61.3382 52.0809 61.6176 54.4485 61.9118C53.9632 60.7794 53.4632 59.6471 52.9779 58.5147Z" fill="#946B5E"/>
<path d="M47.9632 49.6912C48.9485 50.2353 49.9191 50.7794 50.9044 51.3235C49.6691 51.7353 48.4338 52.1618 47.1985 52.5735C47.4485 51.6176 47.6985 50.647 47.9632 49.6912Z" fill="#946B5E"/>
<path d="M51.2868 52.6176C49.7868 53.2059 48.3015 53.7794 46.8015 54.3676C48.6545 54.9117 50.5074 55.4559 52.3603 55.9853C52.0074 54.8676 51.6397 53.7353 51.2868 52.6176Z" fill="#946B5E"/>
<path d="M57.6837 59.5294H41.3014C40.6679 59.5294 40.1543 60.043 40.1543 60.6765V60.8677C40.1543 61.5012 40.6679 62.0147 41.3014 62.0147H57.6837C58.3172 62.0147 58.8308 61.5012 58.8308 60.8677V60.6765C58.8308 60.043 58.3172 59.5294 57.6837 59.5294Z" fill="#C5978A"/>
<path d="M48.522 45.75C48.9119 45.75 49.2279 45.434 49.2279 45.0441C49.2279 44.6543 48.9119 44.3383 48.522 44.3383C48.1322 44.3383 47.8162 44.6543 47.8162 45.0441C47.8162 45.434 48.1322 45.75 48.522 45.75Z" fill="white"/>
<path d="M24.9338 37.6471C17.8603 37.6471 12.125 31.8971 12.125 24.8235C12.125 17.75 17.875 12 24.9338 12C31.9926 12 37.7573 17.75 37.7573 24.8235C37.7573 31.8971 32.0074 37.6471 24.9338 37.6471ZM24.9338 13.9706C18.9485 13.9706 14.0809 18.8382 14.0809 24.8235C14.0809 30.8088 18.9485 35.6765 24.9338 35.6765C30.9191 35.6765 35.7868 30.8088 35.7868 24.8235C35.7868 18.8382 30.9191 13.9706 24.9338 13.9706Z" fill="#63463D"/>
<path d="M24.9337 33.2353C20.3014 33.2353 16.522 29.4559 16.522 24.8235C16.522 20.1912 20.3014 16.4117 24.9337 16.4117C29.5661 16.4117 33.3455 20.1912 33.3455 24.8235C33.3455 29.4559 29.5661 33.2353 24.9337 33.2353ZM24.9337 18.3676C21.3749 18.3676 18.4779 21.2647 18.4779 24.8235C18.4779 28.3823 21.3749 31.2794 24.9337 31.2794C28.4926 31.2794 31.3896 28.3823 31.3896 24.8235C31.3896 21.2647 28.4926 18.3676 24.9337 18.3676Z" fill="#9A7469"/>
<path d="M24.9485 25.7059C24.4044 26.1029 23.8602 26.5 23.3161 26.897C22.0955 31 20.8602 35.0882 19.6396 39.1912C18.5514 39.9853 17.4779 40.7941 16.3896 41.5882C22.0808 41.6176 27.772 41.6618 33.4632 41.6912C32.4779 40.8529 31.4926 40.0147 30.4926 39.1912C29.1838 35.1176 27.8896 31.0588 26.5808 26.9853C26.0367 26.5588 25.4779 26.1323 24.9338 25.7059H24.9485Z" fill="#C5978A"/>
<path d="M24.9486 28.8677C26.6948 28.8677 28.1104 27.4521 28.1104 25.7059C28.1104 23.9597 26.6948 22.5441 24.9486 22.5441C23.2024 22.5441 21.7869 23.9597 21.7869 25.7059C21.7869 27.4521 23.2024 28.8677 24.9486 28.8677Z" fill="#F5D2C6"/>
<path d="M22.1986 35.8235C24.1986 36.353 26.1986 36.8824 28.1986 37.4118C25.9045 38.0883 23.5956 38.75 21.3015 39.4265C21.6103 38.2353 21.9045 37.0294 22.2133 35.8383L22.1986 35.8235Z" fill="#946B5E"/>
<path d="M28.7721 38.2941C26.8898 39.1324 24.9927 39.9853 23.1104 40.8235C25.4927 41.1177 27.8751 41.3971 30.2427 41.6912C29.7574 40.5588 29.2574 39.4265 28.7721 38.2941Z" fill="#946B5E"/>
<path d="M23.772 29.4853C24.7573 30.0294 25.7279 30.5735 26.7132 31.1176C25.4779 31.5294 24.2426 31.9559 23.0073 32.3676C23.2573 31.4118 23.5073 30.4412 23.772 29.4853Z" fill="#946B5E"/>
<path d="M27.0956 32.397C25.5956 32.9853 24.1104 33.5588 22.6104 34.147C24.4633 34.6911 26.3162 35.2353 28.1692 35.7647C27.8162 34.647 27.4486 33.5147 27.0956 32.397Z" fill="#946B5E"/>
<path d="M33.4925 39.3088H17.1102C16.4767 39.3088 15.9631 39.8224 15.9631 40.4559V40.6471C15.9631 41.2806 16.4767 41.7941 17.1102 41.7941H33.4925C34.1261 41.7941 34.6396 41.2806 34.6396 40.6471V40.4559C34.6396 39.8224 34.1261 39.3088 33.4925 39.3088Z" fill="#C5978A"/>
<path d="M24.3309 25.5441C24.7207 25.5441 25.0368 25.2281 25.0368 24.8382C25.0368 24.4484 24.7207 24.1323 24.3309 24.1323C23.941 24.1323 23.625 24.4484 23.625 24.8382C23.625 25.2281 23.941 25.5441 24.3309 25.5441Z" fill="white"/>
<path d="M57.6838 18.8235C57.6838 15.0631 54.6354 12.0147 50.875 12.0147C47.1146 12.0147 44.0662 15.0631 44.0662 18.8235C44.0662 22.5839 47.1146 25.6324 50.875 25.6324C54.6354 25.6324 57.6838 22.5839 57.6838 18.8235Z" fill="#F5D1C6"/>
<path d="M53.7868 19.7206L53.875 19.8088C54.1397 20.0735 54.1397 20.5147 53.875 20.7794L52.8603 21.7941C52.5956 22.0588 52.1544 22.0588 51.8897 21.7941L49.8162 19.7206C49.5515 19.4559 49.5515 19.0147 49.8162 18.75L50.6838 17.8823L49.9338 17.1323L49.0662 18C48.3897 18.6764 48.3897 19.7794 49.0662 20.4559L51.1397 22.5294C51.8162 23.2059 52.9191 23.2059 53.5956 22.5294L54.6103 21.5147C55.2868 20.8382 55.2868 19.7353 54.6103 19.0588L53.978 18.4264C54.0662 18.8529 53.9927 19.3088 53.7721 19.7059L53.7868 19.7206Z" fill="#946B5E"/>
<path d="M48.2132 15.1029L47.1985 16.1176C46.522 16.7941 46.522 17.8971 47.1985 18.5735L47.6691 19.0441C47.6544 18.9265 47.6397 18.7647 47.6691 18.5882C47.7279 18.2353 47.9191 18.0147 48.0073 17.8971L47.9338 17.8235C47.6691 17.5588 47.6691 17.1176 47.9338 16.8529L48.9485 15.8382C49.2132 15.5735 49.6544 15.5735 49.9191 15.8382L51.9926 17.9118C52.2573 18.1765 52.2573 18.6176 51.9926 18.8823L51.272 19.6029L52.022 20.3529L52.7426 19.6323C53.4191 18.9559 53.4191 17.8529 52.7426 17.1765L50.6691 15.1029C49.9926 14.4265 48.8897 14.4265 48.2132 15.1029Z" fill="#946B5E"/>
<path d="M32.1985 55.2059C32.1985 51.4454 29.15 48.397 25.3896 48.397C21.6292 48.397 18.5808 51.4454 18.5808 55.2059C18.5808 58.9663 21.6292 62.0147 25.3896 62.0147C29.15 62.0147 32.1985 58.9663 32.1985 55.2059Z" fill="#F5D1C6"/>
<path d="M28.2721 56.1029L28.3604 56.1911C28.6251 56.4558 28.6251 56.897 28.3604 57.1617L27.3457 58.1764C27.081 58.4411 26.6398 58.4411 26.3751 58.1764L24.3015 56.1029C24.0368 55.8382 24.0368 55.397 24.3015 55.1323L25.1692 54.2646L24.4192 53.5146L23.5515 54.3823C22.8751 55.0588 22.8751 56.1617 23.5515 56.8382L25.6251 58.9117C26.3015 59.5882 27.4045 59.5882 28.081 58.9117L29.0957 57.897C29.7721 57.2205 29.7721 56.1176 29.0957 55.4411L28.4633 54.8088C28.5515 55.2352 28.478 55.6911 28.2574 56.0882L28.2721 56.1029Z" fill="#946B5E"/>
<path d="M22.6986 51.4853L21.6839 52.5C21.0074 53.1764 21.0074 54.2794 21.6839 54.9558L22.1545 55.4264C22.1397 55.3088 22.125 55.147 22.1545 54.9706C22.2133 54.6176 22.4045 54.397 22.4927 54.2794L22.4192 54.2058C22.1545 53.9411 22.1545 53.5 22.4192 53.2353L23.4339 52.2206C23.6986 51.9558 24.1397 51.9558 24.4045 52.2206L26.478 54.2941C26.7427 54.5588 26.7427 55 26.478 55.2647L25.7574 55.9853L26.5074 56.7353L27.228 56.0147C27.9045 55.3382 27.9045 54.2353 27.228 53.5588L25.1545 51.4853C24.478 50.8088 23.375 50.8088 22.6986 51.4853Z" fill="#946B5E"/>
</g>
<defs>
<linearGradient id="paint0_linear_1038_2796" x1="37.125" y1="0" x2="37.125" y2="74" gradientUnits="userSpaceOnUse">
<stop stop-color="#4A2A20"/>
<stop offset="1" stop-color="#643E32"/>
</linearGradient>
<clipPath id="clip0_1038_2796">
<rect width="50" height="50" fill="white" transform="translate(12.125 12)"/>
</clipPath>
</defs>
</svg>
