<svg width="75" height="74" viewBox="0 0 75 74" fill="none" xmlns="http://www.w3.org/2000/svg">
<rect x="0.375" width="74" height="74" rx="37" fill="url(#paint0_linear_1038_5988)"/>
<g clip-path="url(#clip0_1038_5988)">
<path d="M22.2585 51.75C22.2585 51.75 22.1997 51.75 22.185 51.7059L14.582 34.4853L53.6261 17.1617L61.332 34.4265L22.2879 51.75H22.2585Z" fill="#9855B0"/>
<path d="M53.3172 18.0882L60.3907 34.1176L22.5819 50.7941L15.5084 34.7647L53.3172 18.0882ZM53.6554 16.4117C53.5525 16.4117 53.4349 16.4412 53.3319 16.4853L14.3319 33.6912C13.9201 33.8676 13.729 34.3529 13.9201 34.7647L21.5231 51.9853C21.6554 52.2941 21.9643 52.4706 22.2731 52.4706C22.3907 52.4706 22.4937 52.4412 22.5966 52.397L61.5966 35.1912C62.0084 35.0147 62.1996 34.5294 62.0084 34.1176L54.4054 16.897C54.2731 16.5882 53.9643 16.4117 53.6554 16.4117Z" fill="#6D3780"/>
<path d="M41.3435 42.1245C44.1969 40.8654 45.072 36.5859 43.2981 32.566C41.5243 28.5461 37.7732 26.3079 34.9199 27.567C32.0665 28.8261 31.1914 33.1055 32.9652 37.1255C34.7391 41.1454 38.4902 43.3836 41.3435 42.1245Z" fill="#6D3780"/>
<path d="M28.2159 40.7373C29.7243 40.0717 30.6946 38.9599 30.3831 38.254C30.0716 37.5481 28.5963 37.5154 27.0879 38.181C25.5795 38.8466 24.6092 39.9584 24.9207 40.6643C25.2322 41.3702 26.7075 41.4029 28.2159 40.7373Z" fill="#6D3780"/>
<path d="M49.5636 31.3163C51.072 30.6507 52.0423 29.5389 51.7308 28.833C51.4193 28.1271 49.944 28.0944 48.4356 28.76C46.9271 29.4256 45.9569 30.5375 46.2683 31.2434C46.5798 31.9493 48.0551 31.9819 49.5636 31.3163Z" fill="#6D3780"/>
<path d="M18.9643 31.647L15.2731 33.2794C14.332 33.6912 13.9202 34.7794 14.332 35.7206L15.9643 39.4117L19.8025 37.7206C20.6555 37.3382 21.0378 36.3382 20.6702 35.4853L18.979 31.647H18.9643Z" fill="#6D377F"/>
<path d="M19.4644 47.3529L21.0967 51.0441C21.5085 51.9853 22.5967 52.397 23.5379 51.9853L27.2291 50.3529L25.5379 46.5147C25.1555 45.6617 24.1555 45.2794 23.3026 45.647L19.4644 47.3382V47.3529Z" fill="#666666"/>
<path d="M56.9495 37.2499L60.6407 35.6176C61.5818 35.2058 61.9936 34.1176 61.5818 33.1764L59.9495 29.4852L56.1112 31.1764C55.2583 31.5588 54.8759 32.5588 55.2436 33.4117L56.9348 37.2499H56.9495Z" fill="#6D3780"/>
<path d="M56.4495 21.5441L54.8172 17.8529C54.4054 16.9117 53.3172 16.5 52.376 16.9117L48.6848 18.5441L50.376 22.3823C50.7583 23.2353 51.7583 23.6176 52.6113 23.25L56.4495 21.5588V21.5441Z" fill="#6D3780"/>
<path d="M19.5673 52.0882C19.5673 52.0882 19.4937 52.0588 19.4937 52.0147L16.0378 33.5147L58.0084 25.5735L61.5673 44.147L19.582 52.0882H19.5673Z" fill="#C177DB"/>
<path d="M57.4789 26.4117L60.6995 43.6323L20.0819 51.2353L16.8613 34.0147L57.4789 26.4117ZM58.0083 24.8382C58.0083 24.8382 57.9054 24.8382 57.8613 24.8382L15.9642 32.6764C15.523 32.7647 15.2289 33.1911 15.3172 33.6323L18.7731 52.1323C18.8466 52.5294 19.1848 52.7941 19.5819 52.7941C19.626 52.7941 19.6848 52.7941 19.7289 52.7941L61.626 44.9558C62.0672 44.8676 62.3613 44.4411 62.2731 44L58.8172 25.5C58.7436 25.1029 58.4054 24.8382 58.0083 24.8382Z" fill="#A557C0"/>
<path d="M40.3324 47.0467C43.398 46.473 45.2279 42.5067 44.4196 38.1878C43.6114 33.8689 40.471 30.8328 37.4054 31.4065C34.3399 31.9802 32.51 35.9464 33.3182 40.2654C34.1265 44.5843 37.2669 47.6204 40.3324 47.0467Z" fill="#A557C0"/>
<path d="M27.8663 42.7069C29.4869 42.4036 30.6856 41.5429 30.5437 40.7845C30.4017 40.0261 28.9729 39.6571 27.3523 39.9604C25.7317 40.2637 24.533 41.1244 24.675 41.8828C24.8169 42.6412 26.2457 43.0102 27.8663 42.7069Z" fill="#8E8E8E"/>
<path d="M50.8202 38.4275C52.4408 38.1242 53.6395 37.2635 53.4975 36.5051C53.3556 35.7467 51.9268 35.3778 50.3062 35.6811C48.6856 35.9844 47.4869 36.845 47.6288 37.6034C47.7707 38.3618 49.1996 38.7308 50.8202 38.4275Z" fill="#8E8E8E"/>
<path d="M20.9348 31.7647L16.9642 32.5147C15.9642 32.7059 15.3024 33.6765 15.4789 34.6765L16.2289 38.6471L20.3613 37.8677C21.273 37.6912 21.8907 36.8088 21.7142 35.8971L20.9348 31.7647Z" fill="#A557C0"/>
<path d="M17.8318 47.1618L18.5818 51.1324C18.773 52.1324 19.7436 52.7941 20.7436 52.6177L24.7141 51.8677L23.9347 47.7353C23.7583 46.8235 22.8759 46.2059 21.9641 46.3824L17.8318 47.1618Z" fill="#8E8E8E"/>
<path d="M56.6262 45.8971L60.5968 45.1471C61.5968 44.9559 62.2585 43.9853 62.0821 42.9853L61.3321 39.0147L57.1997 39.7941C56.288 39.9706 55.6703 40.8529 55.8468 41.7647L56.6262 45.8971Z" fill="#8E8E8E"/>
<path d="M59.729 30.5L58.979 26.5294C58.7879 25.5294 57.8173 24.8676 56.8173 25.0441L52.8467 25.7941L53.6261 29.9265C53.8026 30.8382 54.6849 31.4559 55.5967 31.2794L59.729 30.5Z" fill="#A557C0"/>
<path d="M18.5819 53.1617L18.4937 34.25L61.1995 34.1765L61.2878 53.0882L61.1995 53.1617H18.5819Z" fill="#EFC1FF"/>
<path d="M60.5524 34.9118V52.4265H19.2289V34.9118H60.5524ZM61.1995 33.4412H18.5818C18.1259 33.4412 17.7583 33.8088 17.7583 34.2647V53.0882C17.7583 53.5441 18.1259 53.9118 18.5818 53.9118H61.1995C61.6554 53.9118 62.023 53.5441 62.023 53.0882V34.2647C62.023 33.8088 61.6554 33.4412 61.1995 33.4412Z" fill="#BA67D7"/>
<path d="M39.8907 52.0441C43.0095 52.0441 45.5378 48.4821 45.5378 44.0882C45.5378 39.6943 43.0095 36.1323 39.8907 36.1323C36.7719 36.1323 34.2437 39.6943 34.2437 44.0882C34.2437 48.4821 36.7719 52.0441 39.8907 52.0441Z" fill="#BA67D7"/>
<path d="M28.4348 45.4853C30.0835 45.4853 31.4201 44.8598 31.4201 44.0882C31.4201 43.3166 30.0835 42.6912 28.4348 42.6912C26.786 42.6912 25.4495 43.3166 25.4495 44.0882C25.4495 44.8598 26.786 45.4853 28.4348 45.4853Z" fill="#BA67D7"/>
<path d="M51.7878 45.4853C53.4365 45.4853 54.7731 44.8598 54.7731 44.0882C54.7731 43.3166 53.4365 42.6912 51.7878 42.6912C50.139 42.6912 48.8025 43.3166 48.8025 44.0882C48.8025 44.8598 50.139 45.4853 51.7878 45.4853Z" fill="#BA67D7"/>
<path d="M23.6554 33.4412H19.6112C18.5818 33.4412 17.7583 34.2647 17.7583 35.2941V39.3382H21.9642C22.9054 39.3382 23.6554 38.5735 23.6554 37.647V33.4412Z" fill="#BA67D7"/>
<path d="M17.7583 48.0147V52.0588C17.7583 53.0882 18.5818 53.9118 19.6112 53.9118H23.6554V49.7059C23.6554 48.7647 22.8907 48.0147 21.9642 48.0147H17.7583Z" fill="#BA67D7"/>
<path d="M56.126 53.8971H60.1701C61.1995 53.8971 62.023 53.0735 62.023 52.0441V48H57.8172C56.876 48 56.126 48.7647 56.126 49.6912V53.8971Z" fill="#BA67D7"/>
<path d="M62.023 39.3235V35.2794C62.023 34.25 61.1995 33.4265 60.1701 33.4265H56.126V37.6323C56.126 38.5735 56.8907 39.3235 57.8172 39.3235H62.023Z" fill="#BA67D7"/>
</g>
<defs>
<linearGradient id="paint0_linear_1038_5988" x1="37.375" y1="0" x2="37.375" y2="74" gradientUnits="userSpaceOnUse">
<stop stop-color="#521468"/>
<stop offset="1" stop-color="#72228E"/>
</linearGradient>
<clipPath id="clip0_1038_5988">
<rect width="50" height="50" fill="white" transform="translate(12.375 12)"/>
</clipPath>
</defs>
</svg>
