<svg width="234" height="102" viewBox="0 0 234 102" fill="none" xmlns="http://www.w3.org/2000/svg">
<path d="M82.1381 51.0903C81.5961 21.5823 42.4217 10.6522 27.3059 38.173C28.0286 38.715 28.9319 39.4377 29.504 39.799C28.42 42.1777 27.4866 44.707 27.1252 47.0857C26.9446 48.7116 26.7639 50.3677 26.7639 52.1743C26.7639 67.4703 39.1396 79.8457 54.436 79.8457C69.7324 79.8457 82.108 67.4703 82.108 52.1743C82.1381 51.813 82.1381 51.4517 82.1381 51.0903ZM33.6895 55.9983C33.3281 58.919 33.5088 60.003 33.5088 60.3643L32.7861 60.545C32.6055 60.003 31.8828 58.3469 31.7021 55.9983C30.9795 47.0857 36.9716 39.0462 46.2759 37.6009C54.8274 36.3363 62.837 41.6056 64.8544 49.073L64.1317 49.2536C63.9511 49.073 63.5897 48.531 62.3251 47.0556C52.0873 36.6976 35.8575 41.4249 33.6895 55.9983ZM59.9162 60.9063C58.4709 62.9237 56.2727 64.1883 53.7133 64.1883C49.5279 64.1883 46.0651 60.7256 46.0651 56.5403C46.0651 52.5356 49.1665 49.2536 53.1713 49.073C55.5501 48.8923 57.8987 50.3376 59.0129 52.355C60.0969 54.7337 59.7355 57.4436 57.9289 59.461C58.6214 60.003 59.3742 60.545 59.9162 60.9063ZM75.7546 61.2676C71.7498 70.3609 63.5596 75.1183 54.7973 74.9377C37.8448 74.0344 32.9367 54.7337 44.2283 47.6277L44.7703 48.1696C44.5897 48.3503 43.867 48.8923 42.9637 51.0903C41.699 53.6497 41.3377 55.9983 41.5183 57.6544C42.4217 71.3245 61.3615 74.0344 67.9257 60.5751C76.1159 41.997 54.0746 23.2383 34.4121 37.631L34.0508 37.0891C39.1396 29.0797 49.1665 25.4364 58.8322 27.8151C73.5565 31.609 81.5961 46.905 75.7546 61.2676Z" fill="#F7F7FA"/>
<path d="M109.087 40.1602V52.8969C109.087 57.9855 105.986 61.8095 100.355 61.8095C94.6944 61.8095 91.623 57.9855 91.623 52.8969V40.1602H96.1397V52.5356C96.1397 55.6369 97.585 57.4435 100.325 57.4435C103.065 57.4435 104.511 55.6369 104.511 52.5356V40.1602H109.087ZM126.371 55.4563C126.371 59.0996 123.45 61.8396 118.723 61.8396H111.255V40.3409H118.362C122.547 40.3409 125.287 42.3583 125.287 45.4295C125.287 47.8083 124.203 49.2535 122.547 49.9762C124.745 50.9096 126.371 52.5356 126.371 55.4563ZM116.013 44.5262V49.0729H118.392C119.837 49.0729 120.771 48.1696 120.771 46.8748C120.771 45.6102 119.867 44.6768 118.392 44.6768L116.013 44.5262ZM118.542 57.6242C120.56 57.6242 121.644 56.7209 121.644 54.8842C121.644 53.0775 120.56 52.1441 118.542 52.1441H116.013V57.4134L118.542 57.6242ZM128.208 40.3409H132.755V61.659H128.208V40.3409ZM143.866 49.0729C147.509 50.3375 149.316 51.9936 149.316 55.2756C149.316 59.6416 145.853 62.201 141.848 62.201C138.205 62.201 135.284 60.575 134.2 57.4737L137.844 54.7336C138.566 56.751 140.222 57.835 142.029 57.835C143.474 57.835 144.588 56.9317 144.588 55.6369C144.588 54.3723 143.685 53.6195 140.764 52.5356C137.482 51.2709 134.923 49.6149 134.923 46.1522C134.923 42.6895 137.844 40.1301 141.848 40.1301C145.13 40.1301 147.69 41.3948 148.774 43.9541L145.13 46.5135C144.408 44.8876 143.324 43.9541 141.668 43.9541C140.222 43.9541 139.289 44.6768 139.289 45.7608C139.5 47.0856 140.764 47.9889 143.866 49.0729ZM172.471 51.0903C172.471 57.293 167.924 62.0203 161.541 62.0203C154.977 62.0203 150.611 57.293 150.611 51.8129C150.611 48.1696 152.056 45.4295 154.073 43.8036L153.351 43.0809C154.977 41.455 157.897 40.1602 161.36 40.1602C167.924 39.9796 172.471 44.8875 172.471 51.0903ZM167.714 51.0903C167.714 47.2663 165.335 44.5262 161.511 44.5262C159.313 44.5262 157.687 45.4295 156.783 46.3328L157.506 47.0555C156.422 47.9588 155.308 49.2535 155.308 51.6021C155.308 54.8842 157.687 57.6242 161.511 57.6242C165.365 57.6242 167.714 54.9143 167.714 51.0903ZM179.005 44.8876V49.7955H188.099V53.2582H179.005V61.6289H174.278V40.3108H188.852V44.6768H179.005V44.8876ZM207.43 44.8876H201.408V61.8396H196.861V44.8876H190.688V40.3409H207.249V44.8876H207.43Z" fill="#F7F7FA"/>
</svg>
