<svg width="234" height="102" viewBox="0 0 234 102" fill="none" xmlns="http://www.w3.org/2000/svg">
<path fill-rule="evenodd" clip-rule="evenodd" d="M166.083 40.9914C166.083 40.2244 166.352 39.5677 166.888 39.0219C167.424 38.463 168.076 38.1833 168.842 38.1833C169.596 38.1833 170.241 38.463 170.777 39.0219C171.326 39.5677 171.601 40.2244 171.601 40.9914V49.5133C171.601 52.6335 170.515 55.2987 168.344 57.5088C166.173 59.7189 163.548 60.8238 160.47 60.8238C157.405 60.8238 154.787 59.7189 152.616 57.5088C150.444 55.2987 149.359 52.6335 149.359 49.5133V40.9914C149.359 40.2244 149.627 39.5677 150.163 39.0219C150.7 38.463 151.351 38.1833 152.118 38.1833C152.884 38.1833 153.535 38.463 154.071 39.0219C154.608 39.5677 154.876 40.2244 154.876 40.9914V49.5133C154.876 51.0864 155.425 52.4321 156.524 53.5499C157.609 54.6551 158.925 55.2075 160.47 55.2075C162.015 55.2075 163.337 54.6551 164.436 53.5499C165.534 52.4321 166.083 51.0864 166.083 49.5133V40.9914Z" fill="#F7F7FA"/>
<path fill-rule="evenodd" clip-rule="evenodd" d="M43.7307 49.7667C42.977 49.7667 42.3256 49.4939 41.7767 48.9478C41.2403 48.4018 40.972 47.7387 40.972 46.9587C40.972 46.1786 41.2403 45.5156 41.7767 44.9695C42.3256 44.4235 42.977 44.1504 43.7307 44.1504H54.5932C55.3596 44.1504 56.0109 44.4235 56.5472 44.9695C57.0837 45.5156 57.3519 46.1786 57.3519 46.9587C57.3519 50.7807 56.0233 54.0505 53.3672 56.7676C50.7103 59.4719 47.4983 60.8239 43.7307 60.8239C39.9757 60.8239 36.7636 59.4719 34.0943 56.7676C31.4378 54.0505 30.1095 50.7807 30.1095 46.9587C30.1095 43.1236 31.4378 39.8538 34.0943 37.1497C36.7636 34.4459 39.9757 33.0935 43.7307 33.0935C45.5825 33.0935 47.3643 33.4641 49.0758 34.2049C50.7743 34.946 52.2685 35.9991 53.5587 37.3643C54.0822 37.9103 54.3376 38.5732 54.325 39.3532C54.312 40.1204 54.0312 40.7769 53.482 41.3227C52.9327 41.8562 52.2815 42.116 51.528 42.1028C50.7617 42.09 50.1166 41.8041 49.5929 41.2448C48.8266 40.4257 47.9326 39.7955 46.9108 39.3532C45.9147 38.9244 44.8546 38.7096 43.7307 38.7096C41.4955 38.7096 39.586 39.5161 38.0024 41.1278C36.4188 42.74 35.6269 44.6837 35.6269 46.9587C35.6269 49.2339 36.4188 51.1776 38.0024 52.7893C39.586 54.4017 41.4955 55.2076 43.7307 55.2076C45.9784 55.2076 47.8942 54.4017 49.4782 52.7893C50.3211 51.9185 50.9467 50.911 51.3554 49.7667H43.7307Z" fill="#F7F7FA"/>
<path fill-rule="evenodd" clip-rule="evenodd" d="M78.571 50.3127C78.0347 50.8718 77.3834 51.1513 76.617 51.1513C75.8507 51.1513 75.1994 50.8718 74.6629 50.3127C74.1264 49.7667 73.8582 49.1104 73.8582 48.343C73.8582 47.0822 73.4239 46.0097 72.5556 45.1255C71.687 44.2415 70.6397 43.7994 69.4136 43.7994C68.1746 43.7994 67.121 44.2415 66.2526 45.1255C65.3839 46.0097 64.9498 47.0822 64.9498 48.343V58.0155C64.9498 58.7956 64.6818 59.4586 64.1453 60.0047C63.6088 60.5508 62.9573 60.8236 62.1911 60.8236C61.4248 60.8236 60.7735 60.5508 60.237 60.0047C59.7005 59.4586 59.4325 58.7956 59.4325 58.0155V48.343C59.4325 45.535 60.4029 43.1432 62.3445 41.1668C64.2986 39.1777 66.6548 38.1831 69.4136 38.1831C72.1595 38.1831 74.5096 39.1777 76.4637 41.1668C78.4049 43.1432 79.3757 45.535 79.3757 48.343C79.3757 49.1104 79.1075 49.7667 78.571 50.3127Z" fill="#F7F7FA"/>
<path fill-rule="evenodd" clip-rule="evenodd" d="M87.4795 58.0156C87.4795 58.7956 87.2113 59.4587 86.675 60.005C86.1386 60.551 85.487 60.8239 84.7207 60.8239C83.9544 60.8239 83.3032 60.551 82.7667 60.005C82.2303 59.4587 81.962 58.7956 81.962 58.0156V42.9415C81.962 42.1745 82.2303 41.5181 82.7667 40.972C83.3032 40.4129 83.9544 40.1333 84.7207 40.1333C85.487 40.1333 86.1386 40.4129 86.675 40.972C87.2113 41.5181 87.4795 42.1745 87.4795 42.9415V58.0156ZM86.675 33.9124C87.2113 34.4585 87.4795 35.1217 87.4795 35.9018C87.4795 36.6818 87.2113 37.3446 86.675 37.8907C86.1386 38.4368 85.487 38.7098 84.7207 38.7098C83.9544 38.7098 83.3032 38.4368 82.7667 37.8907C82.2303 37.3446 81.962 36.6818 81.962 35.9018C81.962 35.1217 82.2303 34.4585 82.7667 33.9124C83.3032 33.3665 83.9544 33.0935 84.7207 33.0935C85.487 33.0935 86.1386 33.3665 86.675 33.9124Z" fill="#F7F7FA"/>
<path fill-rule="evenodd" clip-rule="evenodd" d="M93.1114 43.7997C92.345 43.7997 91.6939 43.5266 91.1572 42.9808C90.621 42.4347 90.3527 41.7716 90.3527 40.9916C90.3527 40.2246 90.621 39.5679 91.1572 39.0219C91.6939 38.463 92.345 38.1833 93.1114 38.1833H107.461C108.355 38.1833 109.178 38.4436 109.932 38.9634C110.66 39.4576 111.203 40.1334 111.56 40.9916C111.918 41.8626 112.007 42.7466 111.829 43.6436C111.624 44.6708 111.12 45.503 110.315 46.1398L98.6863 55.2077H109.836C110.59 55.2077 111.235 55.4808 111.771 56.0268C112.32 56.5727 112.595 57.2358 112.595 58.0158C112.595 58.7958 112.32 59.4589 111.771 60.0049C111.235 60.551 110.59 60.824 109.836 60.824H95.4678C94.5867 60.824 93.769 60.5704 93.0155 60.0634C92.2748 59.5564 91.732 58.8806 91.3873 58.0352C91.0423 57.1514 90.9529 56.2674 91.119 55.3832C91.3107 54.3434 91.8151 53.5113 92.6324 52.8871L104.242 43.7997H93.1114Z" fill="#F7F7FA"/>
<path fill-rule="evenodd" clip-rule="evenodd" d="M116.858 43.7994C116.092 43.7994 115.441 43.5264 114.904 42.9805C114.368 42.4344 114.1 41.7714 114.1 40.9914C114.1 40.2243 114.368 39.5677 114.904 39.0216C115.441 38.4628 116.092 38.1831 116.858 38.1831H131.208C132.102 38.1831 132.925 38.4433 133.679 38.9631C134.407 39.4573 134.95 40.1332 135.307 40.9914C135.665 41.8623 135.754 42.7463 135.576 43.6434C135.371 44.6706 134.867 45.5027 134.062 46.1395L122.433 55.2075H133.583C134.337 55.2075 134.982 55.4805 135.518 56.0266C136.067 56.5725 136.342 57.2355 136.342 58.0155C136.342 58.7956 136.067 59.4586 135.518 60.0047C134.982 60.5508 134.337 60.8238 133.583 60.8238H119.215C118.334 60.8238 117.516 60.5702 116.763 60.0632C116.022 59.5562 115.479 58.8803 115.134 58.035C114.789 57.1512 114.7 56.2672 114.866 55.383C115.058 54.3431 115.562 53.511 116.379 52.8868L127.989 43.7994H116.858Z" fill="#F7F7FA"/>
<path fill-rule="evenodd" clip-rule="evenodd" d="M145.322 58.0156C145.322 58.7956 145.054 59.4587 144.517 60.005C143.981 60.551 143.329 60.8239 142.563 60.8239C141.797 60.8239 141.146 60.551 140.609 60.005C140.073 59.4587 139.805 58.7956 139.805 58.0156V35.9018C139.805 35.1217 140.073 34.4585 140.609 33.9124C141.146 33.3665 141.797 33.0935 142.563 33.0935C143.329 33.0935 143.981 33.3665 144.517 33.9124C145.054 34.4585 145.322 35.1217 145.322 35.9018V58.0156Z" fill="#F7F7FA"/>
<path fill-rule="evenodd" clip-rule="evenodd" d="M170.796 39.0022C170.26 38.4564 169.609 38.1833 168.842 38.1833C168.076 38.1833 167.425 38.4564 166.888 39.0022C166.352 39.5483 166.084 40.2116 166.084 40.9916V49.4939C166.084 49.6904 166.075 49.8835 166.058 50.073C165.938 51.3997 165.397 52.5524 164.436 53.5305C163.35 54.6487 162.035 55.2075 160.49 55.2075C160.486 55.2075 160.483 55.2073 160.48 55.2073C160.477 55.2073 160.473 55.2075 160.47 55.2075C158.925 55.2075 157.609 54.6487 156.524 53.5305C155.494 52.4826 154.947 51.2344 154.883 49.7861C154.878 49.6896 154.876 49.5923 154.876 49.4939V40.9916C154.876 40.2116 154.608 39.5483 154.072 39.0022C154.005 38.934 153.936 38.87 153.865 38.8102C153.37 38.3923 152.788 38.1833 152.117 38.1833C151.351 38.1833 150.7 38.4564 150.163 39.0022C149.627 39.5483 149.359 40.2116 149.359 40.9916V49.4939C149.359 52.627 150.444 55.2989 152.616 57.5088C153.321 58.227 154.075 58.8266 154.877 59.3113C154.877 59.302 154.876 59.2927 154.876 59.2834C156.333 60.1513 157.891 60.6508 159.549 60.7854C159.643 60.7926 159.737 60.8001 159.833 60.805C159.883 60.8079 159.934 60.8104 159.985 60.8125C160.148 60.8191 160.313 60.8236 160.48 60.8236C160.646 60.8236 160.811 60.8191 160.975 60.8125C161.026 60.8104 161.076 60.8079 161.127 60.805C161.222 60.8001 161.317 60.7926 161.411 60.7854C163.069 60.6508 164.627 60.1513 166.084 59.2834C166.084 59.2927 166.083 59.302 166.083 59.3113C166.884 58.8266 167.638 58.227 168.344 57.5088C170.515 55.2989 171.601 52.627 171.601 49.4939V40.9916C171.601 40.2116 171.333 39.5483 170.796 39.0022Z" fill="#F7F7FA"/>
<path fill-rule="evenodd" clip-rule="evenodd" d="M180.594 45.3595H190.671C191.437 45.3595 192.088 45.6326 192.625 46.1786C193.161 46.7245 193.429 47.3878 193.429 48.1678C193.429 48.935 193.161 49.5915 192.625 50.1373C192.088 50.6832 191.437 50.9564 190.671 50.9564H180.594V58.0156C180.594 58.7956 180.325 59.4587 179.789 60.0048C179.253 60.551 178.601 60.8239 177.835 60.8239C177.069 60.8239 176.417 60.551 175.881 60.0048C175.345 59.4587 175.076 58.7956 175.076 58.0156V44.404C175.076 41.2839 176.162 38.6189 178.333 36.4086C180.504 34.1987 183.123 33.0935 186.188 33.0935C187.491 33.0935 188.908 33.4641 190.441 34.2051C191.961 34.9593 193.25 36.0121 194.311 37.3643C194.783 37.9622 194.975 38.6449 194.885 39.4119C194.809 40.192 194.47 40.8226 193.87 41.3033C193.282 41.7845 192.606 41.9796 191.839 41.8884C191.086 41.7977 190.473 41.4532 190 40.8548C189.464 40.1659 188.812 39.6329 188.046 39.2557C187.292 38.8921 186.545 38.7098 185.805 38.7098C184.514 38.7098 183.327 39.2625 182.241 40.3672C181.143 41.4856 180.594 42.8311 180.594 44.404V45.3595Z" fill="#75667D"/>
<path fill-rule="evenodd" clip-rule="evenodd" d="M202.702 58.0156C202.702 58.7956 202.433 59.4587 201.897 60.005C201.361 60.551 200.709 60.8239 199.943 60.8239C199.177 60.8239 198.525 60.551 197.989 60.005C197.452 59.4587 197.184 58.7956 197.184 58.0156V42.9415C197.184 42.1745 197.452 41.5181 197.989 40.972C198.525 40.4129 199.177 40.1333 199.943 40.1333C200.709 40.1333 201.361 40.4129 201.897 40.972C202.433 41.5181 202.702 42.1745 202.702 42.9415V58.0156ZM201.897 33.9124C202.433 34.4585 202.702 35.1217 202.702 35.9018C202.702 36.6818 202.433 37.3446 201.897 37.8907C201.361 38.4368 200.709 38.7098 199.943 38.7098C199.177 38.7098 198.525 38.4368 197.989 37.8907C197.452 37.3446 197.184 36.6818 197.184 35.9018C197.184 35.1217 197.452 34.4585 197.989 33.9124C198.525 33.3665 199.177 33.0935 199.943 33.0935C200.709 33.0935 201.361 33.3665 201.897 33.9124Z" fill="#75667D"/>
<path fill-rule="evenodd" clip-rule="evenodd" d="M154.578 62.3617C155.012 62.8753 155.512 63.353 156.076 63.7632C156.642 64.1683 157.264 64.5205 157.935 64.7832C159.272 65.3088 160.812 65.523 162.348 65.3101C163.115 65.2076 163.891 65.0228 164.635 64.7159C165.38 64.412 166.102 64.0117 166.779 63.5198C168.138 62.5388 169.27 61.1606 170.063 59.5452C169.707 61.3082 168.935 63.0588 167.733 64.5362C167.134 65.2758 166.44 65.9533 165.664 66.5459C164.887 67.1411 164.018 67.6254 163.098 68.0154C161.255 68.8025 159.176 69.1177 157.074 68.9077C156.024 68.8027 154.977 68.5542 153.958 68.1851C152.942 67.8108 151.961 67.3015 151.039 66.6775L150.909 66.5895C149.622 65.7193 149.272 63.9517 150.127 62.642C150.982 61.3322 152.718 60.9756 154.005 61.846C154.22 61.9913 154.417 62.1726 154.578 62.3617Z" fill="#F7F7FA"/>
</svg>
