<svg width="234" height="102" viewBox="0 0 234 102" fill="none" xmlns="http://www.w3.org/2000/svg">
<path d="M9.00463 32.8611H21.6876L21.9299 43.0191H21.4889C20.8055 39.5636 20.0883 37.1954 19.3419 35.9095C18.5956 34.6286 17.4955 33.9831 16.0512 33.9831H15.1983V49.8408H16.027C16.7927 49.8408 17.4325 49.2351 17.9559 48.0187C18.4744 46.8023 18.8428 45.1689 19.0511 43.1184H19.4146V58.3058H18.9978C18.7071 55.739 18.3097 53.9119 17.8153 52.8147C17.321 51.7225 16.6425 51.1714 15.7798 51.1714H15.1934V67.6447H16.1191C17.6166 67.6447 18.8864 66.7063 19.938 64.8246C20.9848 62.943 21.707 60.5301 22.0947 57.5909H22.5841L22.3903 68.7766H9.00463V67.6496H10.444V33.9881H9.00463V32.8611Z" fill="#F7F7FA"/>
<path d="M29.4902 60.4356L28.8408 62.774C28.5597 63.8315 28.3029 64.7153 28.3029 65.5543C28.3029 67.6743 29.3739 67.8481 30.7842 67.9821V68.7765H24.5469V67.9821C26.4661 67.7587 27.2851 64.1394 27.9636 61.8009L34.4868 38.928H34.7679L41.6255 63.35C42.1635 65.2515 42.8371 67.9871 44.4219 67.9871V68.7815H35.3592V67.9871C36.1491 67.9871 37.5594 67.9871 37.5594 66.5721C37.5594 65.8224 37.448 65.5097 37.2783 64.8493L36.0377 60.4306H29.4902V60.4356ZM32.8197 48.8179L29.97 58.8419H35.616L32.8197 48.8179Z" fill="#F7F7FA"/>
<path d="M52.9175 63.2607C52.9175 66.8403 52.9175 67.9872 55.5685 67.9872V68.7816H45.9146V67.9872C48.5655 67.9872 48.5655 66.8403 48.5655 63.2607V45.0646C48.5655 41.4849 48.5655 40.3381 45.9146 40.3381V39.5437H56.247C60.4827 39.5437 63.2451 42.1056 63.2451 47.7605C63.2451 51.5586 61.326 54.2545 59.0094 54.9595L63.8364 65.47C64.5682 67.1034 64.9656 67.9872 66.0657 67.9872V68.7816H60.1968L54.1824 55.4411H52.9127V63.2607H52.9175ZM52.9175 53.9417H54.2697C57.5991 53.9417 58.6169 51.3798 58.6169 47.8002C58.6169 43.1631 57.318 41.2218 54.7204 41.2218H52.9127V53.9417H52.9175Z" fill="#F7F7FA"/>
<path d="M83.5708 68.7816H66.972V67.9872C69.623 67.9872 69.623 66.8403 69.623 63.2607V45.0646C69.623 41.4849 69.623 40.3381 66.972 40.3381V39.5437H76.9652V40.3381C74.1156 40.3381 74.1156 41.4849 74.1156 45.0646V62.645C74.1156 67.1084 74.3143 67.1084 77.2754 67.1084C80.9732 67.1084 82.1024 66.1353 83.7114 58.5391H84.2784L83.5708 68.7865V68.7816Z" fill="#F7F7FA"/>
<path d="M98.357 63.2608C98.357 67.2376 98.357 67.9873 101.376 67.9873V68.7816H90.85V67.9873C93.8693 67.9873 93.8693 67.2376 93.8693 63.2608V57.9186L89.1829 44.6675C87.9422 41.1325 87.5739 40.3382 86.1927 40.3382V39.5438H95.139V40.3382C94.2376 40.3382 93.3023 40.3382 93.3023 41.7084C93.3023 42.4135 93.8935 44.0072 94.1213 44.6228L97.7609 55.044L101.488 45.2384C101.769 44.4887 102.36 42.9844 102.36 42.1007C102.36 40.6013 101.119 40.3332 100.3 40.3332V39.5388H105.976V40.3332C104.367 40.3332 103.635 42.895 102.675 45.4122L98.357 56.6724V63.2508V63.2608Z" fill="#F7F7FA"/>
<path d="M125.167 67.8084L123.389 56.722H118.562L116.681 67.8084H118.508V68.7816H114.777V67.8084H115.925L122.143 32.5532H124.145L130.29 67.8084H131.409V68.7816H123.432V67.8084H125.162H125.167ZM121.072 42.1502L118.78 55.595H123.195L121.072 42.1502Z" fill="#F7F7FA"/>
<path d="M151.022 48.9966H150.514C149.922 44.4042 147.523 40.7799 144.446 40.7799C140.719 40.7799 138.267 45.9929 138.267 53.8076C138.267 63.5684 140.666 67.4112 144.422 67.4112C147.16 67.4112 149.021 65.2018 150.717 62.069V64.5862C148.657 68.0318 146.428 69.4468 143.433 69.4468C137.278 69.4468 133.299 63.2209 133.299 54.6963C133.299 46.1717 137.957 38.8833 143.515 38.8833C145.013 38.8833 146.312 39.3699 147.693 40.2089C148.115 40.472 148.851 41.0033 149.331 41.0033C150.063 41.0033 150.431 39.9011 150.518 38.8833H151.027V48.9966H151.022Z" fill="#F7F7FA"/>
<path d="M172.08 48.9966H171.571C170.98 44.4042 168.581 40.7799 165.503 40.7799C161.777 40.7799 159.324 45.9929 159.324 53.8076C159.324 63.5684 161.723 67.4112 165.479 67.4112C168.217 67.4112 170.078 65.2018 171.775 62.069V64.5862C169.715 68.0318 167.486 69.4468 164.491 69.4468C158.336 69.4468 154.357 63.2209 154.357 54.6963C154.357 46.1717 159.014 38.8833 164.573 38.8833C166.07 38.8833 167.369 39.3699 168.751 40.2089C169.172 40.472 169.909 41.0033 170.389 41.0033C171.12 41.0033 171.489 39.9011 171.576 38.8833H172.085V48.9966H172.08Z" fill="#F7F7FA"/>
<path d="M181.957 53.1473C185.204 53.1473 185.485 50.233 185.936 46.2115H186.445V61.6719H185.936C185.485 57.6554 185.204 54.7361 181.957 54.7361V62.5954C181.957 66.3041 181.957 67.0985 183.905 67.0985C186.556 67.0985 189.89 67.0985 191.301 59.5023H191.81L190.961 68.7766H174.818V67.9822C177.469 67.9822 177.469 66.8353 177.469 63.2557V45.0646C177.469 41.4849 177.469 40.3381 174.818 40.3381V39.5437H190.457V48.2024H189.949C189.13 41.6637 187.21 41.2218 183.513 41.2218H181.962V53.1473H181.957Z" fill="#F7F7FA"/>
<path d="M207.163 48.5996H206.654C206.344 44.6675 204.085 40.5616 201.405 40.5616C199.854 40.5616 198.27 41.7531 198.27 44.449C198.27 50.4118 208.374 50.6749 208.374 60.4358C208.374 65.9567 205.297 69.4469 201.967 69.4469C200.499 69.4469 199.568 69.0051 198.27 68.1213C197.989 67.9426 197.538 67.7241 197.228 67.7241C196.578 67.7241 196.016 68.5632 195.817 69.4469H195.309V58.4052H195.817C196.239 63.1317 198.614 67.9475 201.856 67.9475C203.465 67.9475 205.244 66.4432 205.244 63.6629C205.244 56.9058 195.279 57.1689 195.279 47.279C195.279 42.334 197.989 38.8884 201.008 38.8884C202.36 38.8884 203.237 39.2856 204.425 40.214C204.822 40.5219 205.244 40.8744 205.694 40.8744C206.455 40.8744 206.513 39.8168 206.654 38.8884H207.163V48.6046V48.5996Z" fill="#F7F7FA"/>
<path d="M223.534 48.5996H223.025C222.715 44.6675 220.456 40.5616 217.776 40.5616C216.226 40.5616 214.641 41.7531 214.641 44.449C214.641 50.4118 224.745 50.6749 224.745 60.4358C224.745 65.9567 221.668 69.4469 218.339 69.4469C216.87 69.4469 215.94 69.0051 214.641 68.1213C214.36 67.9426 213.909 67.7241 213.599 67.7241C212.949 67.7241 212.387 68.5632 212.188 69.4469H211.68V58.4052H212.188C212.61 63.1317 214.985 67.9475 218.227 67.9475C219.836 67.9475 221.615 66.4432 221.615 63.6629C221.615 56.9058 211.651 57.1689 211.651 47.279C211.651 42.334 214.36 38.8884 217.379 38.8884C218.731 38.8884 219.608 39.2856 220.796 40.214C221.193 40.5219 221.615 40.8744 222.065 40.8744C222.826 40.8744 222.884 39.8168 223.025 38.8884H223.534V48.6046V48.5996Z" fill="#F7F7FA"/>
</svg>
