<svg width="234" height="102" viewBox="0 0 234 102" fill="none" xmlns="http://www.w3.org/2000/svg">
<path d="M46.9183 46.6371C46.0432 45.9684 45.5951 44.9866 45.5738 43.6916V41.2241H50.0861V41.841C50.1475 42.4791 50.2914 42.9099 50.5178 43.136C50.7442 43.362 51.0839 43.4962 51.5368 43.5362H64.1751C64.5878 43.5362 64.8968 43.5009 65.102 43.4279C65.3073 43.3549 65.4724 43.1807 65.5974 42.9029C65.72 42.6251 65.7837 42.1777 65.7837 41.5608V40.8521C65.7837 40.2353 65.7224 39.7879 65.5974 39.5101C65.4747 39.2323 65.3096 39.058 65.102 38.985C64.8968 38.9121 64.5878 38.8767 64.1751 38.8767L50.0225 38.9073C49.2606 38.9073 48.5435 38.7331 47.876 38.3823C47.2061 38.0338 46.6612 37.53 46.239 36.8707C45.8168 36.2138 45.5951 35.4416 45.5738 34.5586V30.3936C45.5951 29.5106 45.8168 28.7384 46.239 28.0791C46.6612 27.4222 47.2061 26.9183 47.876 26.5675C48.5459 26.2191 49.2606 26.0425 50.0225 26.0425H65.7814C66.9749 26.0425 67.9963 26.3509 68.8407 26.9678C69.6851 27.5847 70.1073 28.6324 70.1073 30.1134V32.4584H65.7814V32.2724C65.7814 31.6155 65.7248 31.1305 65.6115 30.8221C65.4983 30.5136 65.3379 30.3229 65.1327 30.2523C64.9275 30.1817 64.6067 30.144 64.1751 30.144H51.5368C50.8976 30.1864 50.4966 30.4006 50.3315 30.7915C50.1663 31.1823 50.0838 31.738 50.0838 32.4561C50.0838 33.1742 50.1616 33.7322 50.3149 34.1207C50.4683 34.5115 50.8457 34.7281 51.4424 34.7682H65.779C66.9725 34.7682 67.9939 35.0766 68.8383 35.6935C69.6828 36.3104 70.105 37.3581 70.105 38.8391V43.5574C70.105 45.0384 69.6828 46.0861 68.8383 46.703C67.9939 47.3199 66.9725 47.6283 65.779 47.6283H50.0814C48.8454 47.6283 47.7887 47.294 46.9136 46.6253L46.9183 46.6371Z" fill="#F7F7FA"/>
<path d="M73.5086 26.0471H78.0209V34.8387H91.6782C92.4 34.8387 92.8882 34.6127 93.1453 34.1606C93.4024 33.7086 93.5322 33.1317 93.5322 32.4325C93.5723 30.9115 92.9967 30.151 91.8008 30.151H73.5086V26.0495H93.1312C93.9143 26.0495 94.6809 26.2237 95.4333 26.5745C96.1858 26.9253 96.8038 27.4339 97.2873 28.1002C97.7709 28.7689 98.0233 29.5341 98.0445 30.3982V33.791C98.0233 34.7587 97.7874 35.6322 97.3345 36.4115C96.8816 37.1932 96.273 37.8101 95.5112 38.2621C94.7493 38.7142 93.8836 38.9402 92.9165 38.9402H78.0233V47.6377H73.511V26.0471H73.5086Z" fill="#F7F7FA"/>
<path d="M102.786 46.6369C101.91 45.9683 101.462 44.9864 101.441 43.6915V30.1368H105.953V41.8409C106.015 42.4789 106.159 42.9098 106.385 43.1358C106.612 43.3618 106.942 43.4961 107.373 43.5361H120.042C120.455 43.5361 120.764 43.5008 120.969 43.4278C121.175 43.3548 121.34 43.1806 121.465 42.9027C121.587 42.6249 121.651 42.1775 121.651 41.5607V32.277C121.651 31.6201 121.594 31.1351 121.481 30.8266C121.368 30.5182 121.203 30.3275 120.986 30.2568C120.769 30.1862 120.455 30.1485 120.042 30.1485H101.441C101.524 28.8936 101.998 27.8977 102.863 27.156C103.729 26.4143 104.739 26.0447 105.892 26.0447H121.62C122.835 26.0447 123.861 26.3531 124.694 26.97C125.529 27.5869 125.946 28.6346 125.946 30.1156V43.5643C125.946 45.0453 125.529 46.093 124.694 46.7099C123.859 47.3268 122.835 47.6352 121.62 47.6352H105.923C104.708 47.6352 103.661 47.3009 102.786 46.6322V46.6369Z" fill="#F7F7FA"/>
<path d="M129.343 26.0471H133.886V47.6377H129.343V26.0471Z" fill="#F7F7FA"/>
<path d="M137.285 26.0471H141.797V43.5362H160.554V47.6377H137.287V26.0471H137.285Z" fill="#F7F7FA"/>
<path d="M165.295 46.6371C164.42 45.9684 163.972 44.9866 163.951 43.6916V41.2241H168.463V41.841C168.524 42.4791 168.668 42.9099 168.895 43.136C169.121 43.362 169.461 43.4962 169.914 43.5362H182.552C182.965 43.5362 183.274 43.5009 183.479 43.4279C183.684 43.3549 183.849 43.1807 183.974 42.9029C184.097 42.6251 184.161 42.1777 184.161 41.5608V40.8521C184.161 40.2353 184.099 39.7879 183.974 39.5101C183.852 39.2323 183.687 39.058 183.479 38.985C183.274 38.9121 182.965 38.8767 182.552 38.8767L168.399 38.9073C167.638 38.9073 166.92 38.7331 166.253 38.3823C165.583 38.0338 165.038 37.53 164.616 36.8707C164.194 36.2138 163.972 35.4416 163.951 34.5586V30.3936C163.972 29.5106 164.194 28.7384 164.616 28.0791C165.038 27.4222 165.583 26.9183 166.253 26.5675C166.923 26.2191 167.638 26.0425 168.399 26.0425H184.158C185.352 26.0425 186.373 26.3509 187.218 26.9678C188.062 27.5847 188.484 28.6324 188.484 30.1134V32.4584H184.158V32.2724C184.158 31.6155 184.102 31.1305 183.989 30.8221C183.875 30.5136 183.715 30.3229 183.51 30.2523C183.304 30.1817 182.984 30.144 182.552 30.144H169.914C169.275 30.1864 168.874 30.4006 168.708 30.7915C168.543 31.1823 168.461 31.738 168.461 32.4561C168.461 33.1742 168.539 33.7322 168.692 34.1207C168.848 34.5115 169.223 34.7281 169.819 34.7682H184.156C185.35 34.7682 186.371 35.0766 187.215 35.6935C188.06 36.3104 188.482 37.3581 188.482 38.8391V43.5574C188.482 45.0384 188.06 46.0861 187.215 46.703C186.371 47.3199 185.35 47.6283 184.156 47.6283H168.458C167.222 47.6283 166.166 47.294 165.291 46.6253L165.295 46.6371Z" fill="#F7F7FA"/>
<path d="M29.4187 74.9633C28.5506 74.3017 28.1072 73.3269 28.086 72.0437V58.6209H32.5582V70.2096C32.6195 70.8406 32.761 71.2691 32.9875 71.4928C33.2116 71.7165 33.5394 71.8507 33.9687 71.8907H46.5292C46.9372 71.8907 47.2439 71.8554 47.4491 71.7847C47.6519 71.7141 47.817 71.5399 47.9397 71.2644C48.0624 70.9889 48.1237 70.5463 48.1237 69.9341V60.7305C48.1237 60.0783 48.0671 59.6003 47.9562 59.2943C47.843 58.9882 47.6802 58.7998 47.4656 58.7292C47.2509 58.6585 46.9396 58.6232 46.5315 58.6232H28.0907C28.1709 57.3801 28.6426 56.3912 29.4989 55.6566C30.3551 54.922 31.3576 54.5547 32.5016 54.5547H48.093C49.2983 54.5547 50.315 54.8608 51.1405 55.4729C51.9685 56.0851 52.3813 57.1234 52.3813 58.5926V71.9237C52.3813 73.3905 51.9685 74.4312 51.1405 75.0433C50.3126 75.6555 49.2983 75.9616 48.093 75.9616H32.5322C31.3269 75.9616 30.2914 75.6296 29.4234 74.968L29.4187 74.9633Z" fill="#F7F7FA"/>
<path d="M55.7467 54.5525H78.8131V58.6187H55.7467V54.5525ZM55.7467 58.6187H60.2189V63.0215H65.8564C67.8991 63.0215 76.4708 63.0121 78.7989 62.9909L78.8296 67.0877H60.2213V75.9547H55.7491V58.6187H55.7467Z" fill="#F7F7FA"/>
<path d="M138.201 54.5526H143.439L132.474 75.9572H126.164L122.916 69.5978L119.668 75.9572H113.358L102.362 54.5526H107.631L116.514 71.8887L120.281 64.4885L115.196 54.5503H120.434L129.318 71.8863L138.201 54.5503V54.5526Z" fill="#F7F7FA"/>
<path d="M158.203 54.5525H164.544L175.51 75.957H170.271C167.299 70.1791 164.329 64.3989 161.357 58.621L152.474 75.957H147.235L158.201 54.5525H158.203Z" fill="#F7F7FA"/>
<path d="M180.84 75.957V54.5525H185.312V62.7084H198.851C199.566 62.7084 200.049 62.4847 200.307 62.035C200.561 61.5877 200.689 61.0155 200.689 60.3233V60.8813C200.729 59.3721 200.158 58.6187 198.974 58.6187H180.84V54.5525H200.29C201.066 54.5525 201.826 54.7267 202.573 55.0728C203.319 55.4189 203.932 55.9251 204.411 56.5868C204.89 57.2484 205.14 58.0089 205.161 58.8635V62.068C205.121 63.3935 204.722 64.5096 203.965 65.416C203.21 66.3225 202.198 66.7769 200.932 66.7769L205.159 75.957H200.042L195.846 66.7769H185.31V75.957H180.837H180.84Z" fill="#F7F7FA"/>
</svg>
