<svg width="234" height="102" viewBox="0 0 234 102" fill="none" xmlns="http://www.w3.org/2000/svg">
<path fill-rule="evenodd" clip-rule="evenodd" d="M34.3148 69.9434V22.6207H66.0974V24.2629H67.109V23.6232H68.9423V22.6207H92.8943V23.5089H94.7995V24.2172H95.7162V22.6207H123.134V23.4861H125.096V24.1715H126.071V22.6207H153.738V23.4404H155.356V24.2629H156.31V25.1882H157.181V24.3543H157.96V23.4404H159.796V22.6207H183.978V23.4718H185.797V24.3371H186.501V25.1882H187.282V26.085H188.337V26.9532H188.932V27.7728H189.897V28.7752H190.814V29.6435H191.869V30.4631H192.742V31.1942H193.475V32.1053H194.303V32.9706H195.188V33.7931H195.955V34.7955H196.872V36.4377H197.926V75.0184H196.872V76.7491H195.955V77.5259H195.188V78.5283H194.257V79.3937H192.466V80.2933H170.96V79.3194H169.279V78.4969H168.299V77.6687H167.474V76.7348H166.71V76.0066H164.934V76.7034H164.109V77.6687H163.207V78.437H162.304V79.3508H160.56V80.1391H136.332V79.2595H135.508V78.4684H134.68V77.6773H132.783V78.437H132.082V79.288H130.303V80.1391H44.6858V79.4708H43.6743V78.4684H42.8812V77.6773H41.9329V76.8262H41.0765V76.0066H40.3409V75.1241H39.4845V74.273H38.5678V73.3306H37.6799V72.508H36.8839V71.6284H35.8436V70.6546H35.2315V69.9434H34.3148ZM36.8838 67.3102V24.9911H49.7923V40.7387H52.3642V24.9911H64.4767V67.3102H52.6085V55.2097H49.6716V67.3102H36.8838ZM93.9287 28.5267V26.8389H93.15V26.0649H91.3367V25.191H70.5803V26.0735H68.836V26.9389H68.0112V28.6096H67.1089V67.3102H79.4915V55.2097H82.4284V67.3102H94.8023V28.5267H93.9316H93.9287ZM82.4255 46.699H79.4886V34.6299L80.5519 34.6156V33.7274H81.5605V34.6327H82.4255V46.699ZM122.49 44.934V45.6937V45.6966H120.717V47.5501H122.507V48.3868H124.206V50.1432H125.096V63.8917H124.237V65.5338H123.501V66.4906H121.573V67.3102H97.4374V25.1882H121.642V26.0621H123.387V26.8931H124.269V28.6267H125.093V43.2319H124.234V44.934H122.49ZM112.03 59.7392H112.947V59.7363V52.805H112.122V52.031H110.423V60.6045H112.03V59.7392ZM112.03 41.4983H112.947V41.4955V34.5642H112.122V33.7902H110.423V42.3637H112.03V41.4983ZM152.752 45.6937V44.934H154.497V43.2319H155.356V28.6267H154.531V26.8931H153.649V26.0621H151.905V25.1882H127.7V67.3102H151.836V66.4906H153.764V65.5338H154.499V63.8917H155.359V50.1432H154.468V48.3868H152.77V47.5501H150.979V45.6966H152.752V45.6937ZM143.209 59.7392H142.292V60.6045H140.686V52.031H142.384V52.805H143.209V59.7363V59.7392ZM143.209 41.4983H142.292V42.3637H140.686V33.7902H142.384V34.5642H143.209V41.4955V41.4983ZM184.82 28.7581V26.936H183.963V25.9621H182.127V25.1882H161.448V25.9621H159.796V26.996H158.939V28.6381H157.959V63.9031L158.847 63.8717V65.6052H159.735V66.3963H161.508V67.3074H182.248V66.5163H184.052V65.6652H184.825V63.9031H185.797V28.7581H184.82ZM172.785 59.5107H173.517V34.7955H172.739V33.7931H171.882V34.7498H171.04V59.5107H171.882V60.6045H172.785V59.5107ZM50.6802 69.9547V70.6544H51.4762V71.6569H52.3642V72.4765H53.2522V73.359H54.0166V74.1187H54.9333V75.1211H55.9419V75.8208H56.7379V76.8232H57.6259V77.6743H45.4502V76.8232H44.6255V76.0322H43.7375V75.1211H42.8495V74.2701H42.0248V73.2962H41.1368V72.4765H40.3121V71.8682H39.3638V70.763H38.5678V69.9405C40.5865 69.9419 42.6053 69.944 44.624 69.9462C46.6428 69.9483 48.6615 69.9505 50.6802 69.9519V69.9547ZM66.2353 70.6544V69.9547V69.9519C64.2166 69.9505 62.1978 69.9483 60.1791 69.9462C58.1603 69.944 56.1416 69.9419 54.1228 69.9405V70.763H54.9188V71.8682H55.8671V72.4765H56.6919V73.2962H57.5799V74.2701H58.4046V75.1211H59.2925V76.0322H60.1805V76.8232H61.0052V77.6743H73.1809V76.8232H72.293V75.8208H71.497V75.1211H70.4883V74.1187H69.5716V73.359H68.8072V72.4765H67.9193V71.6569H67.0313V70.6544H66.2353ZM80.7817 69.9547V70.6544H81.5777V71.6569H82.4657V72.4765H83.3536V73.359H84.118V74.1187H85.0347V75.1211H86.0434V75.8208H86.8394V76.8232H87.7273V77.6743H75.5517V76.8232H74.7269V76.0322H73.839V75.1211H72.951V74.2701H72.1263V73.2962H71.2383V72.4765H70.4136V71.8682H69.4653V70.763H68.6693V69.9405C70.688 69.9419 72.7067 69.944 74.7254 69.9462H74.7255C76.7442 69.9483 78.763 69.9505 80.7817 69.9519V69.9547ZM96.4747 70.6544V69.9547V69.9519C94.456 69.9505 92.4373 69.9483 90.4185 69.9462H90.4185C88.3997 69.944 86.381 69.9419 84.3622 69.9405V70.763H85.1583V71.8682H86.1066V72.4765H86.9313V73.2962H87.8192V74.2701H88.644V75.1211H89.5319V76.0322H90.4199V76.8232H91.2446V77.6743H103.42V76.8232H102.532V75.8208H101.736V75.1211H100.728V74.1187H99.811V73.359H99.0466V72.4765H98.1587V71.6569H97.2707V70.6544H96.4747ZM99.1127 69.9433V70.7772H100.006V71.6883H100.88V72.5308H101.751V73.3989H102.621V74.1729H103.417V75.0868H104.343V75.9521H105.239V76.7947H106.041V77.6771H129.418V76.8175H131.148V75.9436H132.082V75.0782H131.134V74.1958H130.292V73.3447H129.404V72.4936H128.548V71.5969H127.706V70.7915H126.881V69.9433H125.964V67.3101H125.142V68.244H124.234V69.1236H122.513V69.989L99.1127 69.9433ZM130.303 70.8116V69.9205L152.836 69.9091V69.0894H154.52V68.2384H155.422V67.3102H156.278V65.6081H157.227V67.3873H157.959V68.207H158.925V69.0295H159.689V69.9205H160.684V70.7916H161.48V71.6112H162.336V72.508H163.207V74.2644H162.342V75.9522H161.494V76.8176H159.75V77.6772H137.281V76.7347H136.338V75.9522H135.568V75.0755H134.663V74.2301H133.766V73.3762H132.872V72.4937H132.082V71.6426H131.174V70.8116H130.303ZM163.985 69.9548H184.023V69.0438H185.676V68.1927H186.532V67.3102H187.42V65.6081H188.153V31.1942H189.253V32.0138H189.989V32.9277H190.874V33.7931H191.731V34.7212H192.619V35.4181H193.446V36.4519H194.331V37.1516H195.188V74.1958H194.348V75.9751H193.521V76.7947H191.785V77.6687H171.879V76.8633H170.121V75.9751H169.224V75.0184H168.468V74.1958H167.483V73.3533H166.609V72.5765H165.715V71.6427H164.957V70.9572H163.985V69.9548Z" fill="#F7F7FA"/>
<path d="M200.435 24.3372H199.579V26.9075H200.435V24.3372Z" fill="#F7F7FA"/>
<path d="M199.579 23.4631H198.697V24.3399H199.579V23.4631Z" fill="#F7F7FA"/>
<path d="M197.843 25.1824H196.961V26.0591H197.843V25.1824Z" fill="#F7F7FA"/>
<path d="M196.967 26.0278H196.085V26.9046H196.967V26.0278Z" fill="#F7F7FA"/>
<path d="M199.579 26.9075H198.697V27.7842H199.579V26.9075Z" fill="#F7F7FA"/>
<path d="M198.694 22.5864H197.812V23.4632H198.694V22.5864Z" fill="#F7F7FA"/>
<path d="M197.812 21.7068H195.243V22.5836H197.812V21.7068Z" fill="#F7F7FA"/>
<path d="M197.812 28.6638H195.243V29.5406H197.812V28.6638Z" fill="#F7F7FA"/>
<path d="M197.812 26.9075H195.243V27.7842H197.812V26.9075Z" fill="#F7F7FA"/>
<path d="M197.812 23.4631H195.243V24.3399H197.812V23.4631Z" fill="#F7F7FA"/>
<path d="M198.694 27.7842H197.812V28.6609H198.694V27.7842Z" fill="#F7F7FA"/>
<path d="M192.619 26.9075H193.475V24.3371H192.619V26.9075Z" fill="#F7F7FA"/>
<path d="M194.375 26.9075H195.231V24.3371H194.375V26.9075Z" fill="#F7F7FA"/>
<path d="M197.826 26.9075H198.682V24.3371H197.826V26.9075Z" fill="#F7F7FA"/>
<path d="M193.478 24.3428H194.36V23.466H193.478V24.3428Z" fill="#F7F7FA"/>
<path d="M193.478 27.7842H194.36V26.9074H193.478V27.7842Z" fill="#F7F7FA"/>
<path d="M194.36 23.4631H195.243V22.5864H194.36V23.4631Z" fill="#F7F7FA"/>
<path d="M194.36 28.6638H195.243V27.7871H194.36V28.6638Z" fill="#F7F7FA"/>
</svg>
