<svg width="234" height="102" viewBox="0 0 234 102" fill="none" xmlns="http://www.w3.org/2000/svg">
<path d="M61.8913 35.8466H73.4142V27.3074L66.4217 20.3889H45.2722L38.2499 27.3336V75.6517L44.6567 81.9906H66.4019L73.219 75.2457V45.9281H54.6804V56.3467H62.3215V70.6977H50.021V31.4919H61.8913V35.8466Z" fill="#F7F7FA"/>
<path d="M103.112 31.875V36.3934H113.989V27.6054L106.844 20.5363H86.3204L79.3378 27.4449V75.2457L85.8836 81.7221H106.672L113.863 74.6072V65.3804H102.916V70.57H90.4206V31.875H103.112Z" fill="#F7F7FA"/>
<path d="M171.657 31.8324H183.398V36.3607H194.792V27.0487L188.004 20.3333H167.858L160.882 27.2354V49.5985L167.91 56.553H183.226V70.6977H171.915V65.4851H160.521V75.0525L167.212 81.673H187.627L194.643 74.7316V52.2473L187.812 45.4893H171.614L171.657 31.8324Z" fill="#F7F7FA"/>
<path d="M148.286 20.6214L119.883 20.5363V81.7189H147.228L154.783 74.2437V27.0487L148.286 20.6214ZM143.601 70.6977H130.737V31.7473H143.601V70.6977Z" fill="#F7F7FA"/>
</svg>
