<svg width="234" height="102" viewBox="0 0 234 102" fill="none" xmlns="http://www.w3.org/2000/svg">
<g clip-path="url(#clip0_579_3582)">
<path d="M45.1399 60.6466C45.07 60.5216 44.9924 60.3967 44.9303 60.2639C44.8655 60.1373 44.8084 60.0069 44.7595 59.8734C43.82 57.3897 42.8961 54.9373 41.9799 52.4927C41.0637 50.048 40.132 47.6034 39.1692 45.1276V45.026C39.1613 44.998 39.1613 44.9682 39.1692 44.9401C39.1692 44.7371 39.2935 44.6355 39.5652 44.6355H43.0669C43.1944 44.6278 43.3206 44.6648 43.424 44.7403C43.5274 44.8158 43.6015 44.9251 43.6337 45.0495L47.0033 55.0154L50.0469 45.0417C50.084 44.914 50.1637 44.8031 50.2726 44.7277C50.3815 44.6523 50.5129 44.617 50.6447 44.6277H54.1464C54.2694 44.6122 54.3937 44.6428 54.4958 44.7136C54.5305 44.7447 54.5577 44.7834 54.5752 44.8267C54.5927 44.8701 54.6001 44.9169 54.5967 44.9636C54.6044 45.0022 54.6044 45.042 54.5967 45.0807L52.6634 50.6572L54.1153 54.9607L57.6325 45.0104C57.6696 44.8828 57.7493 44.7719 57.8582 44.6965C57.9671 44.6211 58.0985 44.5857 58.2303 44.5965H61.6543C61.7773 44.581 61.9017 44.6116 62.0037 44.6824C62.0409 44.7118 62.0703 44.75 62.0892 44.7936C62.1082 44.8372 62.1162 44.8849 62.1124 44.9323C62.1202 44.971 62.1202 45.0108 62.1124 45.0495C61.631 46.3382 61.1108 47.619 60.5984 48.8921L59.0456 52.7973C58.5331 54.0703 58.0129 55.3434 57.4927 56.6321C56.9725 57.9208 56.4756 59.1626 55.9942 60.4357C55.9504 60.5379 55.884 60.6287 55.8001 60.7013C55.7515 60.751 55.6935 60.7904 55.6295 60.8172C55.5655 60.844 55.4968 60.8577 55.4275 60.8575H52.7721C52.644 60.8625 52.5172 60.83 52.4072 60.7637C52.3222 60.7022 52.2595 60.6144 52.2286 60.5138L50.5127 55.9604C50.2643 56.6321 50.0236 57.2725 49.7829 57.9052C49.5422 58.5378 49.2937 59.1939 49.0608 59.8499L48.9366 60.178C48.8905 60.2902 48.8332 60.3975 48.7658 60.4982C48.7082 60.5913 48.6346 60.6733 48.5484 60.7403C48.4632 60.8046 48.3599 60.8402 48.2533 60.8418H45.5902C45.5045 60.8556 45.4166 60.8445 45.3369 60.8099C45.2572 60.7754 45.1889 60.7187 45.1399 60.6466Z" fill="#F7F7FA"/>
<path d="M61.7553 53.9375C61.7471 52.9886 61.9269 52.0474 62.2841 51.1691C62.6414 50.2908 63.169 49.4928 63.8361 48.8218C64.2669 48.3898 64.7524 48.0169 65.2802 47.7127C66.3883 47.0726 67.6439 46.736 68.9216 46.7365C70.0175 46.7447 71.0967 47.007 72.0753 47.503C73.054 47.999 73.9058 48.7153 74.5645 49.5963C75.2233 50.4773 75.6712 51.4992 75.8734 52.5827C76.0757 53.6661 76.0269 54.7819 75.7308 55.8432C75.4074 57.0465 74.7786 58.1446 73.9063 59.0298C73.4766 59.4686 72.9879 59.8445 72.4544 60.1467C71.3644 60.7887 70.1226 61.1232 68.8595 61.1152C68.2072 61.1139 67.5577 61.0299 66.9262 60.8652C66.3284 60.701 65.7542 60.4595 65.2181 60.1467C64.6872 59.8406 64.199 59.465 63.7662 59.0298C63.3383 58.5904 62.9654 58.0999 62.6559 57.5693C62.0327 56.4637 61.7213 55.208 61.7553 53.9375ZM65.7228 53.9375C65.7192 54.3977 65.7954 54.8549 65.948 55.2887C66.0846 55.691 66.2983 56.0624 66.5769 56.3821C66.8473 56.6888 67.1777 56.936 67.5474 57.1085C67.9561 57.2836 68.3958 57.3738 68.8401 57.3738C69.2844 57.3738 69.7241 57.2836 70.1329 57.1085C70.4919 56.9332 70.8115 56.686 71.0723 56.3821C71.346 56.0616 71.5544 55.6901 71.6857 55.2887C71.9653 54.4179 71.9653 53.4806 71.6857 52.6098C71.553 52.2019 71.3449 51.823 71.0723 51.4929C70.814 51.1629 70.4849 50.896 70.1096 50.7119C69.7085 50.5246 69.2705 50.4311 68.8285 50.4385C68.3954 50.4241 67.9649 50.5103 67.5703 50.6905C67.1758 50.8706 66.8279 51.1399 66.5536 51.4773C66.2774 51.8075 66.0642 52.1861 65.9247 52.5942C65.7748 53.026 65.6987 53.4802 65.6995 53.9375H65.7228Z" fill="#F7F7FA"/>
<path d="M78.1765 47.791C78.1749 47.6693 78.2014 47.549 78.2542 47.4395C78.3016 47.3374 78.3705 47.2468 78.4561 47.174C78.6281 47.0504 78.8347 46.9848 79.0461 46.9865H80.6844C80.7975 46.9779 80.9108 47.0023 81.0105 47.0568C81.0923 47.108 81.1614 47.1775 81.2123 47.2599C81.2726 47.3433 81.3197 47.4355 81.3521 47.5332C81.3987 47.6348 81.4453 47.7441 81.4996 47.8378L81.5928 48.0487C81.5928 48.1659 81.6782 48.283 81.7325 48.4236C81.7869 48.5642 81.8257 48.6813 81.8801 48.8063L81.9655 49.0406C82.1829 48.7985 82.3925 48.5564 82.5944 48.2596C82.7898 47.9982 83.0025 47.7503 83.231 47.5176C83.4614 47.2955 83.723 47.1086 84.0075 46.9631C84.3078 46.8099 84.6414 46.7347 84.978 46.7444C85.3293 46.738 85.6804 46.7668 86.0261 46.8303C86.6299 46.9449 87.2051 47.1785 87.7187 47.5176C87.9905 47.6972 88.2855 47.9003 88.6039 48.1346C88.7123 48.1835 88.8081 48.2567 88.8839 48.3486C88.9598 48.4406 89.0137 48.5488 89.0414 48.665C89.0692 48.7812 89.0701 48.9022 89.044 49.0188C89.0179 49.1353 88.9656 49.2444 88.8911 49.3374L87.9284 51.0322C87.8091 51.2293 87.6207 51.3742 87.4004 51.4384C87.1653 51.4837 86.9218 51.4479 86.7094 51.3368C86.4333 51.052 86.1068 50.8216 85.7466 50.6573C85.4002 50.5011 85.0237 50.4237 84.6441 50.4308C84.3802 50.4186 84.1164 50.4584 83.8677 50.548C83.6549 50.627 83.4578 50.7434 83.2854 50.8917C83.1048 51.0487 82.9409 51.224 82.7962 51.4149C82.6487 51.618 82.4934 51.8445 82.3459 52.0944V60.0375C82.3627 60.2643 82.2902 60.4887 82.144 60.6623C82.0525 60.7411 81.9464 60.801 81.8318 60.8386C81.7173 60.8761 81.5965 60.8905 81.4763 60.881H79.0306C78.8352 60.9018 78.6391 60.8473 78.4821 60.7284C78.325 60.6096 78.2186 60.4352 78.1843 60.2406C78.1727 60.1734 78.1727 60.1047 78.1843 60.0375L78.1765 47.791Z" fill="#F7F7FA"/>
<path d="M90.6924 43.6905V43.3546C90.699 43.2589 90.7373 43.1682 90.8011 43.0969C90.8659 43.0133 90.9558 42.9531 91.0573 42.925C91.2139 42.8807 91.3761 42.8597 91.5387 42.8626H94.1397C94.258 42.8621 94.3749 42.8888 94.4813 42.9407C94.5682 42.9803 94.6432 43.0423 94.6987 43.1203C94.7548 43.1875 94.7923 43.2683 94.8074 43.3546C94.8151 43.4325 94.8151 43.511 94.8074 43.5889V51.696L98.7284 47.3222C98.8079 47.221 98.9095 47.1396 99.0252 47.0841C99.141 47.0285 99.2678 47.0005 99.3961 47.002H102.735C103.138 47.002 103.34 47.1582 103.34 47.4862C103.339 47.5532 103.326 47.6194 103.301 47.6815C103.256 47.7607 103.201 47.8341 103.138 47.9002L98.674 52.6488L104.311 59.8968C104.398 59.9777 104.466 60.0762 104.513 60.1858C104.547 60.2729 104.565 60.3655 104.567 60.4591C104.575 60.5229 104.567 60.5876 104.544 60.6476C104.521 60.7075 104.483 60.7608 104.435 60.8028C104.309 60.8716 104.167 60.9041 104.024 60.8965H100.351C100.222 60.8917 100.098 60.842 100.002 60.7559C99.8681 60.6256 99.7484 60.4817 99.6445 60.3263L96.073 55.2653L94.8696 56.5227V60.0608C94.8766 60.1361 94.8766 60.212 94.8696 60.2873C94.8482 60.3837 94.8115 60.476 94.7609 60.5607C94.7039 60.6566 94.6271 60.7392 94.5357 60.8028C94.4268 60.8717 94.2992 60.9045 94.1708 60.8965H91.4378C91.318 60.9036 91.1997 60.8676 91.1039 60.795C91.0174 60.7289 90.9415 60.6499 90.8788 60.5607C90.8322 60.4812 90.7932 60.3975 90.7623 60.3107C90.7543 60.2642 90.7543 60.2167 90.7623 60.1701L90.6924 43.6905Z" fill="#F7F7FA"/>
<path d="M132.409 59.1782C132.215 59.3813 131.998 59.5922 131.757 59.8187C131.518 60.0528 131.258 60.2646 130.981 60.4513C130.698 60.6477 130.393 60.8102 130.072 60.9356C129.735 61.0657 129.377 61.132 129.016 61.1308C128.106 61.1561 127.2 60.9852 126.361 60.6295C125.521 60.2739 124.767 59.7418 124.148 59.0689C123.54 58.4052 123.063 57.6313 122.743 56.7883C122.075 54.966 122.075 52.9638 122.743 51.1415C123.06 50.297 123.538 49.5225 124.148 48.8609C124.774 48.1963 125.529 47.6693 126.367 47.3131C127.205 46.9568 128.107 46.7791 129.016 46.7911C129.386 46.7858 129.753 46.8439 130.103 46.963C130.424 47.0758 130.729 47.2279 131.012 47.416C131.292 47.5933 131.552 47.8002 131.788 48.033C132.021 48.2595 132.231 48.486 132.44 48.7047V43.6827C132.434 43.4653 132.509 43.2535 132.65 43.0891C132.731 43.0027 132.83 42.936 132.941 42.8941C133.051 42.8521 133.169 42.836 133.287 42.847H135.748C135.851 42.8527 135.953 42.8738 136.051 42.9094C136.156 42.9483 136.254 43.0066 136.338 43.0813C136.424 43.1525 136.495 43.24 136.548 43.339C136.604 43.4446 136.63 43.5632 136.625 43.6827V60.0374C136.625 60.5997 136.338 60.8809 135.748 60.8809H133.613C133.499 60.8818 133.386 60.8633 133.279 60.8262C133.2 60.7875 133.131 60.7314 133.077 60.6622C133.016 60.5837 132.966 60.4969 132.93 60.4045C132.884 60.2784 132.829 60.1557 132.767 60.0374L132.409 59.1782ZM126.198 53.9375C126.192 54.3972 126.265 54.8545 126.415 55.2887C126.555 55.6914 126.771 56.0628 127.052 56.3822C127.338 56.6959 127.686 56.9461 128.074 57.1169C128.462 57.2877 128.881 57.3753 129.304 57.3741C130.19 57.3829 131.045 57.0439 131.687 56.429C132.312 55.8056 132.683 54.9701 132.728 54.0859V53.9297C132.732 53.016 132.378 52.1375 131.742 51.4851C131.436 51.1533 131.066 50.8875 130.655 50.7041C130.228 50.5201 129.768 50.427 129.304 50.4307C128.859 50.4233 128.419 50.5167 128.015 50.7041C127.633 50.8948 127.292 51.1603 127.013 51.4851C126.734 51.8134 126.521 52.1926 126.384 52.602C126.24 53.0317 126.177 53.4846 126.198 53.9375Z" fill="#F7F7FA"/>
<path d="M164.18 59.2173C163.549 59.8006 162.821 60.2684 162.03 60.5997C161.223 60.9275 160.361 61.092 159.491 61.084C157.578 61.0848 155.738 60.3467 154.351 59.0221C153.693 58.3692 153.165 57.5949 152.798 56.7415C152.402 55.8469 152.201 54.8776 152.208 53.8985C152.208 52.6568 152.518 51.4349 153.109 50.3448C153.391 49.8148 153.741 49.3238 154.149 48.8843C154.547 48.4619 154.999 48.0942 155.492 47.7909C156.01 47.4752 156.566 47.2284 157.146 47.0567C157.759 46.879 158.395 46.7896 159.033 46.7912C159.623 46.7933 160.211 46.8747 160.78 47.0333C161.338 47.188 161.873 47.4165 162.371 47.7128C163.362 48.2971 164.194 49.118 164.794 50.1027C165.09 50.5911 165.323 51.1162 165.485 51.6648C165.647 52.2176 165.728 52.7911 165.726 53.3674V54.2968C165.727 54.5011 165.67 54.7016 165.562 54.8748C165.435 55.0302 165.256 55.133 165.058 55.1638C164.715 55.2276 164.366 55.2564 164.017 55.2497H156.183C156.241 55.6689 156.392 56.0696 156.626 56.4212C156.828 56.7327 157.093 56.9986 157.402 57.2023C157.685 57.3874 157.998 57.5221 158.326 57.6006C158.627 57.6847 158.938 57.7268 159.25 57.7255C159.511 57.7224 159.771 57.6936 160.027 57.6396C160.291 57.5884 160.551 57.5152 160.803 57.4209C161.045 57.3395 161.279 57.2349 161.502 57.1085C161.694 57.0088 161.869 56.8797 162.022 56.7258C162.117 56.6467 162.218 56.5762 162.325 56.515C162.405 56.4683 162.496 56.444 162.589 56.4447C162.692 56.4511 162.792 56.4863 162.876 56.5462C162.998 56.6297 163.11 56.7266 163.21 56.8352L164.359 58.1473C164.429 58.2175 164.482 58.303 164.514 58.3972C164.526 58.4749 164.526 58.5539 164.514 58.6315C164.518 58.766 164.477 58.8978 164.398 59.0064C164.332 59.0837 164.26 59.1543 164.18 59.2173ZM158.947 50.134C158.665 50.134 158.385 50.1897 158.124 50.298C157.845 50.414 157.584 50.5692 157.348 50.7588C157.114 50.9491 156.902 51.1667 156.719 51.407C156.546 51.6337 156.395 51.877 156.269 52.1334H161.812C161.671 51.8615 161.51 51.6005 161.331 51.3524C161.16 51.1138 160.956 50.9009 160.725 50.7197C160.491 50.5352 160.229 50.3902 159.949 50.2902C159.625 50.1862 159.287 50.1335 158.947 50.134Z" fill="#F7F7FA"/>
<path d="M184.562 44.823C184.554 44.725 184.57 44.6267 184.609 44.5367C184.649 44.4467 184.71 44.368 184.787 44.3075C184.984 44.1731 185.198 44.0655 185.423 43.9873L187.892 43.1047H188.086C188.19 43.0922 188.294 43.1073 188.389 43.1485C188.485 43.1896 188.568 43.2553 188.63 43.339C188.724 43.5306 188.769 43.7426 188.762 43.956V47.4082H190.579C190.681 47.4034 190.782 47.4189 190.878 47.4538C190.974 47.4886 191.062 47.5421 191.138 47.6113C191.217 47.693 191.278 47.7914 191.316 47.8994C191.353 48.0073 191.367 48.1223 191.355 48.2361V50.3449C191.367 50.467 191.354 50.5904 191.316 50.7073C191.279 50.8241 191.218 50.932 191.138 51.0243C191.063 51.0949 190.975 51.1498 190.879 51.186C190.783 51.2222 190.681 51.2389 190.579 51.2352H188.762V60.0452C188.77 60.1608 188.753 60.2768 188.712 60.3849C188.67 60.493 188.605 60.5904 188.521 60.67C188.338 60.8258 188.101 60.9042 187.861 60.8887H185.4C185.208 60.908 185.016 60.8547 184.861 60.7392C184.706 60.6236 184.599 60.4542 184.562 60.2639C184.554 60.1886 184.554 60.1127 184.562 60.0374V51.243H183.785C183.226 51.243 182.947 50.9462 182.947 50.3527V48.2439C182.93 48.0509 182.985 47.8586 183.101 47.7042C183.217 47.5497 183.386 47.4442 183.575 47.4082H184.577L184.562 44.823Z" fill="#F7F7FA"/>
<path d="M205.89 60.6935C205.803 60.7688 205.699 60.8199 205.587 60.8419C205.486 60.8533 205.385 60.8533 205.284 60.8419H203.646C203.528 60.8424 203.411 60.8157 203.304 60.7638C203.212 60.7218 203.132 60.6574 203.071 60.5763C203.001 60.4959 202.946 60.4033 202.908 60.303C202.862 60.2028 202.825 60.0981 202.8 59.9906L202.442 58.616C202.305 58.8899 202.144 59.1513 201.961 59.397C201.739 59.6917 201.478 59.9545 201.185 60.178C200.838 60.4458 200.453 60.6591 200.043 60.8106C199.546 60.9928 199.02 61.0802 198.49 61.0684C197.736 61.0803 196.989 60.9256 196.301 60.6152C195.612 60.3048 195 59.8463 194.507 59.272C194.024 58.698 193.65 58.0385 193.405 57.3273C193.143 56.5744 193.012 55.7818 193.017 54.9842V47.83C193 47.6045 193.063 47.3802 193.195 47.1973C193.267 47.1208 193.356 47.062 193.454 47.0254C193.553 46.9889 193.658 46.9755 193.762 46.9865H196.278C196.504 46.9588 196.733 47.0142 196.922 47.1427C197.063 47.3154 197.13 47.5373 197.108 47.7597V54.8905C197.103 55.2002 197.175 55.5064 197.318 55.7808C197.456 56.0613 197.646 56.313 197.877 56.5228C198.105 56.7318 198.368 56.8984 198.654 57.0149C198.935 57.1372 199.24 57.1985 199.546 57.1945C199.815 57.1899 200.079 57.1287 200.323 57.0149C200.604 56.8904 200.866 56.7246 201.099 56.5228C201.333 56.3126 201.53 56.0644 201.682 55.7886C201.829 55.5155 201.907 55.2093 201.907 54.8983V47.7909C201.907 47.6652 201.93 47.5406 201.977 47.4238C202.016 47.3066 202.093 47.2052 202.194 47.1349C202.276 47.0833 202.365 47.0438 202.458 47.0177C202.553 47.0058 202.65 47.0058 202.745 47.0177H205.207C205.408 46.9908 205.612 47.0445 205.774 47.1671C205.937 47.2898 206.045 47.4717 206.076 47.6738C206.084 47.736 206.084 47.799 206.076 47.8612V60.0687C206.078 60.2022 206.046 60.3339 205.983 60.4514C205.923 60.5635 205.834 60.6578 205.727 60.7247L205.89 60.6935Z" fill="#F7F7FA"/>
<path d="M208.778 47.791C208.776 47.6693 208.803 47.549 208.856 47.4395C208.903 47.335 208.975 47.2437 209.065 47.174C209.235 47.0505 209.439 46.9848 209.648 46.9865H211.294C211.404 46.9781 211.515 47.0025 211.612 47.0568C211.694 47.108 211.763 47.1775 211.814 47.2599C211.874 47.3433 211.921 47.4355 211.954 47.5332C211.998 47.6386 212.049 47.7404 212.109 47.8378C212.13 47.9108 212.159 47.9815 212.194 48.0487L212.334 48.4236C212.381 48.5564 212.427 48.6814 212.482 48.8063L212.575 49.0406C212.792 48.7985 212.994 48.5564 213.196 48.2596C213.391 47.9982 213.604 47.7503 213.832 47.5176C214.063 47.296 214.325 47.1092 214.609 46.9631C214.909 46.809 215.243 46.7337 215.579 46.7444C215.931 46.738 216.282 46.7668 216.628 46.8303C216.926 46.8851 217.217 46.9715 217.497 47.0881C217.785 47.203 218.061 47.3469 218.32 47.5176C218.592 47.6973 218.895 47.9003 219.213 48.1346C219.393 48.2155 219.536 48.3622 219.612 48.5449C219.689 48.7277 219.693 48.9328 219.625 49.1187C219.593 49.1984 219.548 49.2723 219.493 49.3374L218.499 51.0322C218.38 51.2293 218.191 51.3743 217.971 51.4384C217.736 51.4837 217.492 51.448 217.28 51.3368C216.986 51.0547 216.64 50.832 216.263 50.6808C215.916 50.5245 215.54 50.4472 215.16 50.4543C214.676 50.4335 214.201 50.5981 213.832 50.9151C213.652 51.0702 213.491 51.2458 213.351 51.4384C213.204 51.6414 213.048 51.8679 212.901 52.1179V60.0375C212.915 60.2653 212.839 60.4895 212.691 60.6623C212.602 60.7417 212.497 60.8019 212.383 60.8395C212.27 60.8771 212.15 60.8912 212.031 60.881H209.585C209.389 60.9039 209.191 60.8504 209.032 60.7314C208.873 60.6123 208.766 60.4367 208.731 60.2406C208.724 60.1731 208.724 60.105 208.731 60.0375L208.778 47.791Z" fill="#F7F7FA"/>
<path d="M231.791 59.2174C231.156 59.7991 230.425 60.2667 229.633 60.5998C228.838 60.9188 227.988 61.078 227.133 61.0684C225.219 61.0757 223.376 60.3367 221.993 59.0065C221.321 58.3568 220.78 57.5823 220.401 56.7259C220.004 55.8261 219.803 54.8516 219.811 53.8674C219.811 52.6257 220.12 51.4038 220.712 50.3137C221.275 49.2505 222.108 48.356 223.126 47.7207C223.652 47.4112 224.216 47.1723 224.803 47.0099C225.414 46.8327 226.047 46.7433 226.682 46.7444C227.276 46.7453 227.866 46.8294 228.437 46.9943C229.556 47.2996 230.576 47.8947 231.395 48.7204C231.798 49.1291 232.15 49.5854 232.443 50.0794C232.738 50.5685 232.971 51.0934 233.134 51.6414C233.296 52.1944 233.377 52.7678 233.375 53.3441V54.2735C233.373 54.4785 233.314 54.6789 233.204 54.8515C233.085 55.0047 232.913 55.1078 232.723 55.1404C232.383 55.2076 232.036 55.2364 231.69 55.2264H223.809C223.859 55.6463 224.008 56.048 224.244 56.3979C224.447 56.709 224.711 56.9748 225.021 57.1789C225.305 57.3613 225.617 57.4958 225.945 57.5772C226.247 57.6551 226.557 57.6944 226.869 57.6944C227.129 57.6938 227.389 57.6677 227.645 57.6163C227.909 57.5616 228.168 57.4885 228.421 57.3976C228.665 57.3102 228.901 57.2031 229.128 57.0774C229.314 56.9758 229.487 56.8497 229.64 56.7025C229.736 56.6227 229.837 56.5496 229.943 56.4838C230.031 56.4243 230.133 56.3893 230.238 56.3823C230.341 56.3823 230.442 56.4151 230.525 56.476C230.647 56.5595 230.759 56.6564 230.859 56.765L232.016 58.0771C232.081 58.1497 232.132 58.2347 232.164 58.327C232.176 58.4073 232.176 58.4889 232.164 58.5692C232.168 58.7038 232.127 58.836 232.047 58.944C231.971 59.0434 231.885 59.135 231.791 59.2174ZM226.581 50.1341C226.299 50.1326 226.019 50.1884 225.758 50.2981C225.48 50.4154 225.219 50.5704 224.982 50.7589C224.75 50.9437 224.542 51.1561 224.361 51.3915C224.182 51.6143 224.031 51.8582 223.91 52.1179H229.477C229.336 51.846 229.175 51.5849 228.996 51.3368C228.821 51.1018 228.617 50.8894 228.39 50.7042C228.158 50.5194 227.895 50.3767 227.614 50.2824C227.281 50.1736 226.931 50.1234 226.581 50.1341Z" fill="#F7F7FA"/>
<path d="M115.724 58.202H113.069V60.8731H115.724V58.202Z" fill="#F7F7FA"/>
<path d="M146.812 46.9865H144.157V49.6576H146.812V46.9865Z" fill="#F7F7FA"/>
<path d="M168.086 47.002H165.431V49.6731H168.086V47.002Z" fill="#F7F7FA"/>
<path d="M171.572 49.6418H168.008V60.0373C167.991 60.2384 168.051 60.4387 168.177 60.5959C168.303 60.7532 168.485 60.8553 168.684 60.8808C168.751 60.8886 168.819 60.8886 168.886 60.8808H171.347C171.442 60.8927 171.539 60.8927 171.634 60.8808C171.73 60.8566 171.822 60.8171 171.906 60.7636C172.001 60.692 172.074 60.5944 172.116 60.4824C172.161 60.3627 172.185 60.2357 172.185 60.1076V53.0002C172.206 52.6799 172.296 52.3681 172.449 52.0864C172.601 51.8127 172.795 51.5649 173.024 51.3522C173.256 51.149 173.518 50.983 173.8 50.8602C174.046 50.7527 174.309 50.6943 174.577 50.6884C174.887 50.6878 175.193 50.7517 175.477 50.8758C175.761 50.9935 176.023 51.1571 176.254 51.36C176.51 51.5943 176.716 51.8787 176.859 52.1957C176.972 52.4407 177.03 52.7071 177.03 52.9768V60.131C177.017 60.2401 177.025 60.3508 177.054 60.4568C177.083 60.5627 177.133 60.6617 177.201 60.748C177.387 60.878 177.613 60.9362 177.838 60.912H180.353C180.459 60.9208 180.566 60.9058 180.665 60.868C180.765 60.8301 180.854 60.7705 180.928 60.6933C181.06 60.5132 181.123 60.2915 181.106 60.0685V52.8674C181.104 52.0697 180.971 51.2779 180.71 50.5243C180.472 49.8097 180.1 49.1471 179.616 48.5718C179.127 47.9976 178.517 47.5395 177.831 47.2303C177.145 46.921 176.4 46.7684 175.648 46.7832C175.119 46.7718 174.593 46.8592 174.095 47.041C173.679 47.192 173.288 47.4081 172.939 47.6814C172.645 47.9049 172.384 48.1677 172.162 48.4624C171.995 48.6933 171.844 48.936 171.712 49.1888C171.709 49.2199 171.709 49.2513 171.712 49.2825L171.572 49.6418Z" fill="#F7F7FA"/>
<path d="M146.789 49.6342L145.119 54.9842L144.886 54.3203C144.778 54.0079 144.661 53.6408 144.529 53.2269C144.397 52.8129 144.25 52.3443 144.087 51.8523C143.924 51.3602 143.768 50.8447 143.605 50.3371C143.442 49.8294 143.287 49.3374 143.124 48.8531C142.961 48.3689 142.837 47.9393 142.713 47.5488C142.668 47.377 142.568 47.2253 142.426 47.1189C142.285 47.0124 142.112 46.9574 141.936 46.963H139.141C138.799 46.963 138.582 47.0724 138.489 47.2833C138.444 47.4116 138.429 47.5484 138.444 47.6835C138.459 47.8186 138.503 47.9487 138.574 48.0643L143.582 60.4045C143.638 60.5429 143.732 60.6621 143.854 60.7482C144.044 60.8439 144.255 60.887 144.467 60.8731H145.756C145.93 60.8829 146.102 60.8333 146.245 60.7326C146.354 60.6382 146.449 60.5276 146.525 60.4045L150.989 49.6263L146.789 49.6342Z" fill="#F7F7FA"/>
<path d="M120.988 60.3887L115.282 45.5492L115.01 44.9244C114.949 44.851 114.881 44.783 114.808 44.7213C114.767 44.6826 114.718 44.6529 114.664 44.6341C114.611 44.6153 114.554 44.6077 114.497 44.612H111.71C111.651 44.6002 111.59 44.6002 111.532 44.612C111.463 44.6407 111.398 44.6774 111.337 44.7213C111.283 44.7601 111.236 44.8076 111.198 44.8619C111.16 44.9012 111.133 44.9496 111.12 45.0025L105.235 60.4434C105.205 60.4941 105.193 60.5535 105.202 60.6118C105.21 60.6701 105.238 60.7236 105.281 60.7636C105.382 60.8402 105.505 60.8814 105.631 60.8808H108.83C108.954 60.8857 109.077 60.8484 109.179 60.7748C109.28 60.7011 109.354 60.5955 109.389 60.4747L109.808 59.3578L110.227 58.2487H113.123V54.7653H111.446C111.586 54.3905 111.726 53.9843 111.865 53.5626L112.285 52.2661C112.432 51.8287 112.564 51.3913 112.704 50.9617C112.844 50.5322 112.983 50.1339 113.123 49.759L116.842 60.4903C116.878 60.6136 116.952 60.7227 117.052 60.8027C117.169 60.8721 117.304 60.9047 117.44 60.8964H120.546C120.62 60.9047 120.695 60.8972 120.766 60.8743C120.837 60.8514 120.902 60.8137 120.957 60.7636C121.001 60.7124 121.028 60.6486 121.033 60.5813C121.039 60.5139 121.023 60.4465 120.988 60.3887Z" fill="#F7F7FA"/>
<path d="M26.8164 35.8021H29.86C30.0515 35.8021 30.2352 35.8787 30.3706 36.0149C30.506 36.1511 30.5821 36.3358 30.5821 36.5285V39.5979H26.8164V35.8021Z" fill="#F7F7FA"/>
<path d="M26.8164 43.4168V39.621H23.0352V35.8252H1.14023C0.948725 35.8252 0.765063 35.9017 0.629649 36.0379C0.494234 36.1742 0.418159 36.3589 0.418159 36.5516L0.418159 65.4496C0.418159 65.6422 0.494234 65.827 0.629649 65.9632C0.765063 66.0994 0.948725 66.1759 1.14023 66.1759H29.9221C30.0176 66.177 30.1123 66.1589 30.2008 66.1229C30.2893 66.0869 30.3698 66.0335 30.4377 65.966C30.5056 65.8984 30.5595 65.818 30.5962 65.7294C30.633 65.6407 30.6519 65.5456 30.6519 65.4496V43.4168H26.8164Z" fill="#F7F7FA"/>
<path d="M25.9701 48.939V49.7903H25.1238V50.6416V51.4929V52.3442V53.1956V54.0469V54.8982V55.7495H25.9701V54.8982V54.0469H26.8164V53.1956V52.3442V51.4929V50.6416V49.7903V48.939H25.9701Z" fill="#B4B1C2" fill-opacity="0.64"/>
<path d="M25.1238 48.0876H24.2775H23.4312H22.5849V48.939V49.7903H23.4312V48.939H24.2775H25.1238H25.9701V48.0876H25.1238Z" fill="#B4B1C2" fill-opacity="0.64"/>
<path d="M25.1238 55.7495H24.2775V56.6008H25.1238V55.7495Z" fill="#B4B1C2" fill-opacity="0.64"/>
<path d="M23.4312 56.6008H22.5849V57.4521H23.4312V56.6008Z" fill="#B4B1C2" fill-opacity="0.64"/>
<path d="M16.6686 42.1362V42.9797V43.8311H17.5149V42.9797V42.1362H16.6686Z" fill="#545163" fill-opacity="0.35"/>
<path d="M16.6609 43.8309H15.8146V44.6823H16.6609V43.8309Z" fill="#545163" fill-opacity="0.35"/>
<path d="M16.6686 40.4337H15.8146V41.285V42.1364H16.6686V41.285V40.4337Z" fill="#545163" fill-opacity="0.35"/>
<path d="M13.2834 42.9797V43.8311H14.1219V42.9797V42.1362H13.2834V42.9797Z" fill="#545163" fill-opacity="0.35"/>
<path d="M13.2834 43.8309H12.4371V44.6823H13.2834V43.8309Z" fill="#545163" fill-opacity="0.35"/>
<path d="M13.2834 40.4337H12.4293V41.285V42.1364H13.2834V41.285V40.4337Z" fill="#545163" fill-opacity="0.35"/>
<path d="M9.89826 42.9797V43.8311H10.7446V42.9797V42.1362H9.89826V42.9797Z" fill="#545163" fill-opacity="0.35"/>
<path d="M9.89825 43.8309H9.05195V44.6823H9.89825V43.8309Z" fill="#545163" fill-opacity="0.35"/>
<path d="M9.89825 40.4337H9.05195V41.285V42.1364H9.89825V41.285V40.4337Z" fill="#545163" fill-opacity="0.35"/>
<path opacity="0.55" d="M24.2775 48.9388H23.4312V49.7902H22.5849V48.9388V48.0875V47.2362V46.3849H21.7386H20.9001V47.2362V48.0875H21.7386V48.9388V49.7902V50.6415V51.4928V52.3441V53.1954V54.0468V54.8981V55.7494V56.6007V57.4521V58.3034V59.1547H20.9001H20.0538V60.006H19.2075V60.8573H18.3612H17.5149H16.6686V61.7087H15.8145H14.9682H14.1219H13.2834H12.4293H11.5908H10.7445H9.8982H9.05191H8.20561V62.56H9.05191H9.8982H10.7445H11.5908H12.4293H13.2834H14.1219H14.9682H15.8145H16.6686H17.5149H18.3612H19.2075V61.7087H20.0538H20.9001V60.8573V60.006H21.7386H22.5849V59.1547V58.3034H23.4312V57.4521H22.5849V56.6007V55.7494V54.8981V54.0468V53.1954V52.3441V51.4928V50.6415H23.4312H24.2775V49.7902H25.1238V48.9388H24.2775Z" fill="#7E7994"/>
<path d="M9.05197 45.5338H8.20567H7.35937V46.3851H8.20567H9.05197H9.89826V45.5338H9.05197Z" fill="white"/>
<path d="M8.20567 47.2363H7.35937V48.0876V48.939V49.7903V50.6416V51.4929V52.3442V53.1956V54.0469H8.20567V53.1956H9.05197V52.3442V51.4929V50.6416V49.7903V48.939H9.89826V48.0876V47.2363H9.05197H8.20567Z" fill="white"/>
<path d="M25.9701 54.0468V54.8981V55.7494H26.8164V54.8981V54.0468H25.9701Z" fill="#545163" fill-opacity="0.35"/>
<path d="M25.9701 55.7495H25.1238V56.6008H25.9701V55.7495Z" fill="#545163" fill-opacity="0.35"/>
<path d="M25.9701 48.939H25.1238V49.7903H25.9701V48.939Z" fill="#545163" fill-opacity="0.35"/>
<path d="M23.4312 56.6008V57.4521H24.2775H25.1238V56.6008H24.2775H23.4312Z" fill="#545163" fill-opacity="0.35"/>
<path d="M20.9001 47.2362V46.3849H20.0538H19.2075H18.3612H17.5149H16.6686H15.8145H14.9683H14.122H13.2834H12.4294H11.5908H10.7445H9.89823H9.05194H8.20564H7.35934H6.51305H5.66675H4.82045V47.2362H5.66675H6.51305H7.35934H8.20564H9.05194H9.89823H10.7445H11.5908H12.4294H13.2834H14.122H14.9683H15.8145H16.6686H17.5149H18.3612H19.2075V48.0875V48.9388V49.7902V50.6415V51.4928V52.3441V53.1954V54.0468V54.8981V55.7494V56.6007V57.452H18.3612V58.3034H17.5149V59.1547H16.6686H15.8145H14.9683V60.006H14.122H13.2834V60.8573H12.4294H11.5908H10.7445H9.89823H9.05194H8.20564H7.35934H6.51305V61.7086H7.35934H8.20564H9.05194H9.89823H10.7445H11.5908H12.4294H13.2834H14.122H14.9683H15.8145H16.6686V60.8573H17.5149H18.3612H19.2075V60.006H20.0538V59.1547H20.9001H21.7386V58.3034V57.452V56.6007V55.7494V54.8981V54.0468V53.1954V52.3441V51.4928V50.6415V49.7902V48.9388V48.0875H20.9001V47.2362Z" fill="#545163" fill-opacity="0.35"/>
<path d="M21.7387 45.5338H20.9001H20.0538H19.2075H18.3612H17.5149H16.6686H15.8146H14.9683H14.122H13.2834H12.4294H11.5909H10.7446H9.89826V46.3851H10.7446H11.5909H12.4294H13.2834H14.122H14.9683H15.8146H16.6686H17.5149H18.3612H19.2075H20.0538H20.9001H21.7387H22.5849V45.5338H21.7387Z" fill="#B4B1C2" fill-opacity="0.64"/>
<path d="M17.5149 47.2363H16.6686H15.8145H14.9683H14.122H13.2834H12.4294H11.5908H10.7445H9.89824V48.0876V48.939H9.05194V49.7903V50.6416V51.4929V52.3442V53.1956H8.20564V54.0469H7.35934V53.1956V52.3442V51.4929V50.6416V49.7903V48.939V48.0876V47.2363H6.51305H5.66675H4.82045V48.0876V48.939V49.7903V50.6416V51.4929V52.3442V53.1956V54.0469V54.8982V55.7495V56.6008V57.4522V58.3035V59.1548V60.0061H5.66675V60.8575H6.51305H7.35934H8.20564H9.05194H9.89824H10.7445H11.5908H12.4294H13.2834V60.0061H14.122H14.9683V59.1548H15.8145H16.6686H17.5149V58.3035H18.3612V57.4522H19.2075V56.6008V55.7495V54.8982V54.0469V53.1956V52.3442V51.4929V50.6416V49.7903V48.939V48.0876V47.2363H18.3612H17.5149Z" fill="#B4B1C2" fill-opacity="0.64"/>
<path d="M6.51305 46.3851H7.35934V45.5338H6.51305H5.66675H4.82045V46.3851H5.66675H6.51305Z" fill="#B4B1C2" fill-opacity="0.64"/>
</g>
<defs>
<clipPath id="clip0_579_3582">
<rect width="233" height="102" fill="white" transform="translate(0.375)"/>
</clipPath>
</defs>
</svg>
