<svg width="234" height="102" viewBox="0 0 234 102" fill="none" xmlns="http://www.w3.org/2000/svg">
<path d="M49.9182 24.0015H26.0165V74.6936H49.9182V24.0015Z" fill="#F7F7FA"/>
<path d="M65.4852 24.3132C72.515 24.4493 78.6618 28.4409 81.0523 34.4312C81.4187 35.3498 83.9702 42.0658 79.9806 48.2205C76.3991 53.7431 70.3411 54.5085 69.4693 54.6049C75.8216 61.0913 82.1739 67.5777 88.5262 74.0641H109.035V53.899H94.4982V24.4578C84.8281 24.4096 75.1581 24.3614 65.488 24.3132H65.4852Z" fill="#F7F7FA"/>
<path d="M120.249 24.387V39.4435H118.025V24.387H120.249Z" fill="#F7F7FA"/>
<path d="M134.375 24.387V39.4435H132.329L124.833 28.4013H124.697V39.4435H122.473V24.387H124.533L132.034 35.4434H132.17V24.387H134.375Z" fill="#F7F7FA"/>
<path d="M135.874 26.3431V24.387H147.285V26.3431H142.685V39.4435H140.466V26.3431H135.874Z" fill="#F7F7FA"/>
<path d="M148.784 39.4435V24.387H158.03V26.3431H151.008V30.9301H157.546V32.8777H151.008V37.4874H158.116V39.4435H148.784Z" fill="#F7F7FA"/>
<path d="M169.976 29.144C169.837 28.6989 169.651 28.2964 169.418 27.942C169.185 27.5876 168.907 27.2815 168.585 27.0291C168.263 26.7768 167.897 26.5841 167.486 26.4508C167.075 26.3176 166.625 26.2524 166.137 26.2524C165.306 26.2524 164.557 26.4707 163.89 26.9072C163.224 27.3438 162.697 27.9817 162.311 28.8237C161.925 29.6657 161.73 30.6919 161.73 31.9081C161.73 33.1243 161.925 34.1591 162.313 35.0039C162.702 35.8487 163.235 36.4866 163.913 36.9232C164.59 37.3598 165.359 37.5781 166.225 37.5781C167.028 37.5781 167.727 37.4108 168.324 37.0791C168.921 36.7446 169.385 36.274 169.712 35.6645C170.04 35.055 170.207 34.3349 170.207 33.5071L170.784 33.6176H166.564V31.7437H172.361V33.456C172.361 34.7204 172.097 35.8176 171.573 36.7474C171.048 37.6773 170.323 38.3917 169.399 38.8992C168.474 39.4038 167.416 39.6561 166.228 39.6561C164.893 39.6561 163.724 39.3414 162.719 38.7149C161.714 38.0884 160.931 37.1954 160.367 36.0415C159.806 34.8877 159.526 33.5156 159.526 31.928C159.526 30.7259 159.69 29.6487 160.015 28.6933C160.342 27.7379 160.8 26.9243 161.394 26.2552C161.986 25.5861 162.685 25.073 163.491 24.7186C164.296 24.3643 165.173 24.1857 166.128 24.1857C166.925 24.1857 167.666 24.3047 168.358 24.5457C169.046 24.7867 169.66 25.1269 170.201 25.5663C170.742 26.0086 171.189 26.5302 171.545 27.1369C171.9 27.7436 172.139 28.4126 172.264 29.1469H169.982L169.976 29.144Z" fill="#F7F7FA"/>
<path d="M174.168 39.4435V24.387H179.424C180.565 24.387 181.515 24.5882 182.273 24.9908C183.028 25.3934 183.594 25.949 183.969 26.6549C184.344 27.3608 184.53 28.1802 184.53 29.1072C184.53 30.0342 184.341 30.8394 183.963 31.5368C183.586 32.2342 183.019 32.7785 182.264 33.164C181.509 33.5496 180.56 33.7452 179.416 33.7452H175.434V31.7891H179.216C179.935 31.7891 180.524 31.6842 180.976 31.4716C181.429 31.2618 181.762 30.9556 181.973 30.553C182.184 30.1505 182.289 29.6685 182.289 29.1044C182.289 28.5402 182.184 28.0441 181.97 27.6273C181.756 27.2106 181.423 26.8902 180.971 26.6691C180.518 26.448 179.924 26.3346 179.188 26.3346H176.395V39.4435H174.171H174.168ZM181.448 32.6509L185.091 39.4435H182.556L178.985 32.6509H181.448Z" fill="#F7F7FA"/>
<path d="M187.475 39.4435H185.113L190.418 24.387H192.989L198.295 39.4435H195.932L191.762 27.1227H191.648L187.473 39.4435H187.475ZM187.872 33.5468H195.532V35.4575H187.872V33.5468Z" fill="#F7F7FA"/>
<path d="M199.408 39.4435V24.387H201.632V37.4874H208.315V39.4435H199.408Z" fill="#F7F7FA"/>
<path d="M118.022 57.4994V42.4429H123.278C124.419 42.4429 125.368 42.6442 126.126 43.0467C126.882 43.4493 127.448 44.0049 127.823 44.7108C128.198 45.4168 128.384 46.2361 128.384 47.1631C128.384 48.0901 128.195 48.8953 127.817 49.5927C127.44 50.2901 126.873 50.8344 126.118 51.2199C125.363 51.6055 124.413 51.8011 123.27 51.8011H119.288V49.845H123.07C123.789 49.845 124.377 49.7401 124.83 49.5275C125.282 49.3177 125.616 49.0115 125.827 48.6089C126.038 48.2064 126.143 47.7244 126.143 47.1603C126.143 46.5961 126.038 46.1 125.824 45.6832C125.61 45.2665 125.277 44.9462 124.824 44.725C124.372 44.5039 123.778 44.3905 123.042 44.3905H120.249V57.4994H118.025H118.022ZM125.302 50.7068L128.944 57.4994H126.41L122.839 50.7068H125.302Z" fill="#F7F7FA"/>
<path d="M130.085 57.4994V42.4429H139.331V44.399H132.309V48.986H138.848V50.9336H132.309V55.5433H139.417V57.4994H130.085Z" fill="#F7F7FA"/>
<path d="M142.543 57.4994H140.18L145.486 42.4429H148.057L153.362 57.4994H151L146.83 45.1786H146.716L142.54 57.4994H142.543ZM142.94 51.6027H150.6V53.5134H142.94V51.6027Z" fill="#F7F7FA"/>
<path d="M154.473 57.4994V42.4429H156.697V55.5433H163.38V57.4994H154.473Z" fill="#F7F7FA"/>
<path d="M167.125 42.4429V57.4994H164.901V42.4429H167.125Z" fill="#F7F7FA"/>
<path d="M168.624 44.399V42.4429H180.035V44.399H175.434V57.4994H173.216V44.399H168.624Z" fill="#F7F7FA"/>
<path d="M180.399 42.4429H182.925L186.779 49.2865H186.937L190.788 42.4429H193.314L187.964 51.5885V57.4994H185.746V51.5885L180.396 42.4429H180.399Z" fill="#F7F7FA"/>
<path d="M118.022 73.8969V58.8403H120.246V71.9407H126.929V73.8969H118.022Z" fill="#F7F7FA"/>
<path d="M130.43 73.8969H128.067L133.373 58.8403H135.944L141.249 73.8969H138.886L134.716 61.5761H134.603L130.427 73.8969H130.43ZM130.827 68.0001H138.487V69.9109H130.827V68.0001Z" fill="#F7F7FA"/>
<path d="M142.363 73.8969V58.8403H147.763C148.809 58.8403 149.675 59.0161 150.361 59.3648C151.047 59.7135 151.561 60.1869 151.902 60.7851C152.244 61.3833 152.413 62.0495 152.413 62.7951C152.413 63.4216 152.299 63.9518 152.074 64.3799C151.849 64.8079 151.547 65.151 151.172 65.409C150.797 65.6669 150.381 65.854 149.931 65.9703V66.1177C150.42 66.1432 150.9 66.302 151.366 66.5996C151.835 66.8973 152.221 67.3169 152.53 67.8612C152.838 68.4055 152.99 69.0661 152.99 69.8457C152.99 70.6253 152.816 71.3057 152.46 71.9152C152.108 72.5247 151.563 73.0095 150.83 73.3639C150.095 73.7183 149.156 73.8969 148.015 73.8969H142.363ZM144.586 65.3551H147.568C148.068 65.3551 148.518 65.2559 148.918 65.0603C149.317 64.8646 149.637 64.5896 149.875 64.2324C150.114 63.8781 150.231 63.4557 150.231 62.9709C150.231 62.3472 150.017 61.8256 149.589 61.406C149.162 60.9864 148.507 60.7738 147.624 60.7738H144.586V65.3551ZM144.586 71.9492H147.799C148.865 71.9492 149.628 71.7394 150.089 71.317C150.55 70.8946 150.78 70.3673 150.78 69.7351C150.78 69.2589 150.664 68.8223 150.428 68.4254C150.192 68.0285 149.859 67.711 149.423 67.4757C148.987 67.2404 148.473 67.1213 147.879 67.1213H144.589V71.9436L144.586 71.9492Z" fill="#F7F7FA"/>
<path d="M162.652 62.7951C162.574 62.0977 162.258 61.559 161.703 61.1735C161.147 60.7879 160.445 60.5952 159.601 60.5952C158.996 60.5952 158.474 60.6915 158.032 60.8843C157.591 61.0771 157.249 61.3436 157.005 61.6781C156.763 62.0126 156.641 62.3954 156.641 62.8206C156.641 63.1778 156.725 63.4868 156.888 63.7476C157.055 64.0085 157.272 64.2239 157.544 64.3997C157.816 64.5726 158.107 64.7172 158.418 64.8334C158.729 64.9497 159.029 65.0432 159.318 65.1169L160.759 65.4997C161.228 65.6159 161.711 65.7775 162.205 65.9788C162.699 66.18 163.157 66.4437 163.579 66.7726C164.001 67.1014 164.343 67.5068 164.607 67.9916C164.868 68.4764 164.998 69.0575 164.998 69.7351C164.998 70.5884 164.784 71.3454 164.354 72.0059C163.924 72.6665 163.302 73.1909 162.488 73.5708C161.675 73.9507 160.692 74.1435 159.54 74.1435C158.388 74.1435 157.48 73.9649 156.675 73.6077C155.867 73.2505 155.236 72.7402 154.781 72.0825C154.326 71.4219 154.073 70.6395 154.026 69.7323H156.258C156.303 70.2766 156.475 70.7273 156.78 71.0874C157.086 71.4474 157.477 71.7139 157.955 71.8897C158.432 72.0626 158.957 72.1505 159.529 72.1505C160.156 72.1505 160.717 72.0484 161.208 71.8443C161.7 71.6402 162.089 71.3567 162.372 70.991C162.655 70.6253 162.797 70.1972 162.797 69.7068C162.797 69.2617 162.672 68.8959 162.424 68.6124C162.177 68.329 161.844 68.0937 161.425 67.9065C161.006 67.7194 160.531 67.555 160.003 67.4133L158.26 66.9285C157.08 66.5996 156.144 66.1177 155.456 65.4798C154.767 64.8419 154.423 64 154.423 62.951C154.423 62.0835 154.653 61.3266 155.114 60.6802C155.575 60.0338 156.2 59.5292 156.986 59.1692C157.774 58.8091 158.66 58.6277 159.651 58.6277C160.642 58.6277 161.53 58.8063 162.297 59.1635C163.063 59.5207 163.666 60.014 164.107 60.6377C164.548 61.2614 164.779 61.9786 164.798 62.7894H162.652V62.7951Z" fill="#F7F7FA"/>
</svg>
