<?xml version="1.0" standalone="no"?>
<!DOCTYPE svg PUBLIC "-//W3C//DTD SVG 20010904//EN"
 "http://www.w3.org/TR/2001/REC-SVG-20010904/DTD/svg10.dtd">
<svg version="1.0" xmlns="http://www.w3.org/2000/svg"
 width="512.000000pt" height="512.000000pt" viewBox="0 0 512.000000 512.000000"
 preserveAspectRatio="xMidYMid meet">
<metadata>
Created by potrace 1.14, written by Peter Selinger 2001-2017
</metadata>
<g transform="translate(0.000000,512.000000) scale(0.100000,-0.100000)"
fill="#000000" stroke="none">
<path d="M999 5116 c-2 -2 -24 -6 -49 -9 -105 -14 -250 -61 -350 -115 -156
-84 -315 -226 -397 -352 -24 -36 -46 -69 -51 -75 -18 -23 -75 -154 -98 -224
-25 -77 -30 -98 -44 -191 -5 -30 -9 -743 -9 -1585 0 -1301 2 -1543 15 -1620 8
-49 16 -94 18 -100 1 -5 8 -30 15 -55 44 -154 151 -331 281 -460 161 -162 344
-259 580 -310 81 -18 164 -18 1675 -17 l1590 3 84 22 c46 12 100 29 120 38
131 57 165 74 241 123 96 63 225 186 292 281 95 134 168 313 193 470 11 68 13
389 11 1650 -1 861 -5 1579 -9 1595 -5 17 -12 48 -17 70 -24 107 -89 264 -139
333 -12 17 -21 35 -21 40 0 6 -3 12 -7 14 -5 2 -28 29 -52 60 -138 182 -415
353 -636 393 -22 4 -51 10 -65 13 -27 7 -3164 14 -3171 8z"/>
</g>
</svg>
