<svg width="34" height="34" viewBox="0 0 34 34" fill="none" xmlns="http://www.w3.org/2000/svg">
<g clip-path="url(#clip0_286_274)">
<path d="M11.39 29.6198C17.6805 29.6198 22.78 24.5204 22.78 18.2298C22.78 11.9393 17.6805 6.83984 11.39 6.83984C5.09948 6.83984 0 11.9393 0 18.2298C0 24.5204 5.09948 29.6198 11.39 29.6198Z" fill="#7E7994"/>
<path d="M11.3899 20.0299C13.7095 20.0299 15.5899 18.1495 15.5899 15.8299C15.5899 13.5103 13.7095 11.6299 11.3899 11.6299C9.07035 11.6299 7.18994 13.5103 7.18994 15.8299C7.18994 18.1495 9.07035 20.0299 11.3899 20.0299Z" fill="#F7F7FA"/>
<path d="M11.39 26.4096C13.75 26.4096 15.86 25.3197 17.26 23.6297C15.7 22.2397 13.65 21.3896 11.39 21.3896C9.13002 21.3896 7.08002 22.2397 5.52002 23.6297C6.91002 25.3297 9.02002 26.4096 11.39 26.4096Z" fill="#F7F7FA"/>
<path d="M28.3901 10.8998C31.3117 10.8998 33.6801 8.53141 33.6801 5.60983C33.6801 2.68824 31.3117 0.319824 28.3901 0.319824C25.4685 0.319824 23.1001 2.68824 23.1001 5.60983C23.1001 8.53141 25.4685 10.8998 28.3901 10.8998Z" fill="#7E7994"/>
<path d="M28.3903 6.49006C29.4065 6.49006 30.2303 5.66626 30.2303 4.65006C30.2303 3.63385 29.4065 2.81006 28.3903 2.81006C27.3741 2.81006 26.5503 3.63385 26.5503 4.65006C26.5503 5.66626 27.3741 6.49006 28.3903 6.49006Z" fill="#F7F7FA"/>
<path d="M28.3903 9.3001C29.4303 9.3001 30.3503 8.8201 30.9603 8.0801C30.2803 7.4701 29.3803 7.1001 28.3903 7.1001C27.4003 7.1001 26.5003 7.4701 25.8203 8.0801C26.4303 8.8201 27.3603 9.3001 28.3903 9.3001Z" fill="#F7F7FA"/>
<path d="M28.3898 33.74C31.4881 33.74 33.9998 31.2283 33.9998 28.13C33.9998 25.0317 31.4881 22.52 28.3898 22.52C25.2915 22.52 22.7798 25.0317 22.7798 28.13C22.7798 31.2283 25.2915 33.74 28.3898 33.74Z" fill="#7E7994"/>
<path d="M28.3898 28.8299C29.406 28.8299 30.2298 28.0061 30.2298 26.9899C30.2298 25.9737 29.406 25.1499 28.3898 25.1499C27.3736 25.1499 26.5498 25.9737 26.5498 26.9899C26.5498 28.0061 27.3736 28.8299 28.3898 28.8299Z" fill="#F7F7FA"/>
<path d="M28.3898 31.6297C29.4298 31.6297 30.3498 31.1497 30.9598 30.4097C30.2798 29.7997 29.3798 29.4297 28.3898 29.4297C27.3998 29.4297 26.4998 29.7997 25.8198 30.4097C26.4298 31.1497 27.3598 31.6297 28.3898 31.6297Z" fill="#F7F7FA"/>
<path d="M11.39 8.83984C16.57 8.83984 20.78 13.0498 20.78 18.2298C20.78 23.4098 16.57 27.6198 11.39 27.6198C6.21 27.6198 2 23.4098 2 18.2298C2 13.0498 6.21 8.83984 11.39 8.83984ZM11.39 6.83984C5.1 6.83984 0 11.9398 0 18.2298C0 24.5198 5.1 29.6198 11.39 29.6198C17.68 29.6198 22.78 24.5198 22.78 18.2298C22.78 11.9398 17.68 6.83984 11.39 6.83984Z" fill="#545163"/>
<path d="M28.3903 1.38C30.7203 1.38 32.6203 3.28 32.6203 5.61C32.6203 7.94 30.7203 9.84 28.3903 9.84C26.0603 9.84 24.1603 7.94 24.1603 5.61C24.1603 3.28 26.0603 1.38 28.3903 1.38ZM28.3903 0C25.2903 0 22.7803 2.51 22.7803 5.61C22.7803 8.71 25.2903 11.22 28.3903 11.22C31.4903 11.22 34.0003 8.71 34.0003 5.61C34.0003 2.51 31.4903 0 28.3903 0Z" fill="#545163"/>
<path d="M28.3903 23.9C30.7203 23.9 32.6203 25.8 32.6203 28.13C32.6203 30.46 30.7203 32.36 28.3903 32.36C26.0603 32.36 24.1603 30.46 24.1603 28.13C24.1603 25.8 26.0603 23.9 28.3903 23.9ZM28.3903 22.52C25.2903 22.52 22.7803 25.03 22.7803 28.13C22.7803 31.23 25.2903 33.74 28.3903 33.74C31.4903 33.74 34.0003 31.23 34.0003 28.13C34.0003 25.03 31.4903 22.52 28.3903 22.52Z" fill="#545163"/>
<path d="M19.52 11.63L24.28 7.97998" stroke="#545163" stroke-width="2" stroke-miterlimit="10"/>
<path d="M20.7002 23.2402C21.8302 24.0402 22.9602 24.8502 24.0902 25.6502" stroke="#545163" stroke-width="2" stroke-miterlimit="10"/>
</g>
<defs>
<clipPath id="clip0_286_274">
<rect width="34" height="34" fill="white"/>
</clipPath>
</defs>
</svg>
