<svg width="34" height="34" viewBox="0 0 34 34" fill="none" xmlns="http://www.w3.org/2000/svg">
<g clip-path="url(#clip0_286_281)">
<path d="M20.3204 21.6899H13.6504V31.8299H20.3204V21.6899Z" fill="#545163"/>
<path d="M31.6802 2.16992H2.30023C1.02445 2.16992 -0.00976562 3.20415 -0.00976562 4.47992V25.1999C-0.00976562 26.4757 1.02445 27.5099 2.30023 27.5099H31.6802C32.956 27.5099 33.9902 26.4757 33.9902 25.1999V4.47992C33.9902 3.20415 32.956 2.16992 31.6802 2.16992Z" fill="#7E7994"/>
<path d="M25.5603 31.8H8.39031C8.39031 30.66 9.32031 29.73 10.4603 29.73H23.5003C24.6403 29.73 25.5703 30.66 25.5703 31.8H25.5603Z" fill="#7E7994"/>
<path d="M30.6305 3.35986H3.35047C2.17962 3.35986 1.23047 4.30902 1.23047 5.47986V24.1799C1.23047 25.3507 2.17962 26.2999 3.35047 26.2999H30.6305C31.8013 26.2999 32.7505 25.3507 32.7505 24.1799V5.47986C32.7505 4.30902 31.8013 3.35986 30.6305 3.35986Z" fill="#F7F7FA"/>
<path d="M6.92041 15.7799V13.2199L12.2304 10.6099H12.8104V13.1499L9.65041 14.4999L12.8104 15.8499V18.3899H12.2304L6.92041 15.7799Z" fill="#545163"/>
<path d="M14.4404 20.8101L17.2304 8.8501H19.7604L16.9704 20.8101H14.4404Z" fill="#545163"/>
<path d="M27.0702 15.7799L21.7602 18.3899H21.1802V15.8499L24.3402 14.4999L21.1802 13.1499V10.6099H21.7602L27.0702 13.2199V15.7799Z" fill="#545163"/>
</g>
<defs>
<clipPath id="clip0_286_281">
<rect width="34" height="34" fill="white"/>
</clipPath>
</defs>
</svg>
