<svg width="34" height="34" viewBox="0 0 34 34" fill="none" xmlns="http://www.w3.org/2000/svg">
<g clip-path="url(#clip0_286_276)">
<path d="M6.56678 0.46642L0.499809 6.53339C-0.113315 7.14652 -0.113317 8.14059 0.499806 8.75371L25.2768 33.5307C25.8899 34.1439 26.884 34.1439 27.4971 33.5307L33.5641 27.4638C34.1772 26.8506 34.1772 25.8566 33.5641 25.2434L8.7871 0.46642C8.17397 -0.146703 7.17991 -0.146703 6.56678 0.46642Z" fill="#7E7994"/>
<path d="M1.33252 9.57422L6.64289 4.26385C6.9328 3.97393 7.3995 3.97393 7.68941 4.26385C7.97932 4.55376 7.97932 5.02045 7.68941 5.31037L2.37904 10.6207L1.33959 9.58129L1.33252 9.57422Z" fill="#A7A2B8"/>
<path d="M3.49658 11.7358L6.18359 9.04883C6.45229 8.78013 6.88362 8.78721 7.14525 9.04883L7.22304 9.12662C7.49174 9.39532 7.48466 9.82665 7.22304 10.0883L4.53603 12.7753L3.49658 11.7358Z" fill="#A7A2B8"/>
<path d="M5.65186 13.8945L10.9622 8.58416C11.2521 8.29425 11.7188 8.29425 12.0087 8.58416C12.2987 8.87407 12.2987 9.34077 12.0087 9.63068L6.69838 14.9411L5.65893 13.9016L5.65186 13.8945Z" fill="#A7A2B8"/>
<path d="M7.83008 16.0557L10.5171 13.3687C10.7858 13.1 11.2171 13.107 11.4787 13.3687L11.5565 13.4464C11.8252 13.7151 11.8182 14.1465 11.5565 14.4081L8.86953 17.0951L7.83008 16.0557Z" fill="#A7A2B8"/>
<path d="M9.98535 18.2241L15.2957 12.9137C15.5856 12.6238 16.0523 12.6238 16.3422 12.9138C16.6322 13.2037 16.6322 13.6704 16.3422 13.9603L11.0319 19.2706L9.99242 18.2312L9.98535 18.2241Z" fill="#A7A2B8"/>
<path d="M12.1494 20.3857L14.8364 17.6987C15.1051 17.43 15.5365 17.4371 15.7981 17.6987L15.8759 17.7765C16.1446 18.0452 16.1375 18.4765 15.8759 18.7382L13.1889 21.4252L12.1494 20.3857Z" fill="#A7A2B8"/>
<path d="M14.3047 22.5444L19.6151 17.2341C19.905 16.9441 20.3717 16.9441 20.6616 17.2341C20.9515 17.524 20.9515 17.9907 20.6616 18.2806L15.3512 23.591L14.3118 22.5515L14.3047 22.5444Z" fill="#A7A2B8"/>
<path d="M16.4761 24.6987L19.1631 22.0117C19.4318 21.743 19.8631 21.7501 20.1247 22.0117L20.2025 22.0895C20.4712 22.3582 20.4642 22.7895 20.2025 23.0512L17.5155 25.7382L16.4761 24.6987Z" fill="#A7A2B8"/>
<path d="M18.6387 26.8745L23.949 21.5641C24.239 21.2742 24.7056 21.2742 24.9956 21.5641C25.2855 21.8541 25.2855 22.3207 24.9956 22.6107L19.6852 27.921L18.6457 26.8816L18.6387 26.8745Z" fill="#A7A2B8"/>
<path d="M20.7925 29.0361L23.4795 26.3491C23.7482 26.0804 24.1795 26.0875 24.4412 26.3491L24.5189 26.4269C24.7876 26.6956 24.7806 27.1269 24.5189 27.3886L21.8319 30.0756L20.7925 29.0361Z" fill="#A7A2B8"/>
<path d="M22.958 31.1943L28.2684 25.884C28.5583 25.5941 29.025 25.594 29.3149 25.884C29.6048 26.1739 29.6048 26.6406 29.3149 26.9305L24.0045 32.2409L22.9651 31.2014L22.958 31.1943Z" fill="#A7A2B8"/>
<path d="M6.37797 30.4465L5.8252 29.9697L2.76189 33.5211L3.31466 33.9979L6.37797 30.4465Z" fill="#7E7994"/>
<path d="M29.1399 7.46L25.1299 4L28.5799 0C28.5799 0 30.4699 1.63 30.5099 1.66C30.5499 1.69 32.5499 3.42 32.5899 3.45C31.4399 4.78 30.2899 6.12 29.1399 7.45V7.46Z" fill="#7E7994"/>
<path d="M13.0102 27.99L7.18018 22.96L23.3002 4.29C24.9002 2.43 27.4602 2.01 29.0102 3.34C30.6802 4.78 30.6302 7.58 28.9002 9.58L13.0102 27.98V27.99Z" fill="#F7F7FA"/>
<path d="M7.84022 22.1899L13.6702 27.2199C9.49022 31.6699 5.34022 33.4899 4.15022 32.4799C3.00022 31.4999 4.06022 27.4199 7.18022 22.9599C7.40022 22.6999 7.62022 22.4499 7.84022 22.1899Z" fill="#F7F7FA"/>
<path d="M14.4951 24.7402L10.1789 21.0172C9.44287 20.3823 8.33152 20.4644 7.69664 21.2004L7.48109 21.4503C6.84621 22.1863 6.92821 23.2977 7.66425 23.9325L11.9804 27.6555C12.7165 28.2904 13.8278 28.2084 14.4627 27.4724L14.6782 27.2225C15.3131 26.4865 15.2311 25.3751 14.4951 24.7402Z" fill="#7E7994"/>
</g>
<defs>
<clipPath id="clip0_286_276">
<rect width="34" height="34" fill="white"/>
</clipPath>
</defs>
</svg>
