<svg width="34" height="34" viewBox="0 0 34 34" fill="none" xmlns="http://www.w3.org/2000/svg">
<path d="M21.7301 30.3203H7.31006C7.31006 27.0103 10.0001 24.3203 13.3101 24.3203H21.7301C22.4901 24.3203 23.1001 23.7003 23.1001 22.9503V15.5903H29.1001V22.9503C29.1001 27.0203 25.8001 30.3203 21.7301 30.3203Z" fill="#F7F7FA"/>
<path d="M18.3101 18.2703L26.1101 9.76025L33.9001 18.2703H18.3101Z" fill="#F7F7FA"/>
<path d="M12.2699 3.68018H26.6899C26.6899 6.99018 23.9999 9.68018 20.6899 9.68018H12.2699C11.5099 9.68018 10.8999 10.3002 10.8999 11.0502V18.4102H4.8999V11.0502C4.8999 6.98017 8.1999 3.68018 12.2699 3.68018Z" fill="#7E7994"/>
<path d="M15.6901 15.73L7.8901 24.24L0.100098 15.73H15.6901Z" fill="#7E7994"/>
</svg>
