<svg width="34" height="34" viewBox="0 0 34 34" fill="none" xmlns="http://www.w3.org/2000/svg">
<g clip-path="url(#clip0_286_275)">
<path opacity="0.25" d="M17.3699 28.13C24.7871 28.13 30.7999 22.1172 30.7999 14.7C30.7999 7.28284 24.7871 1.27002 17.3699 1.27002C9.95276 1.27002 3.93994 7.28284 3.93994 14.7C3.93994 22.1172 9.95276 28.13 17.3699 28.13Z" stroke="#545163" stroke-width="2" stroke-miterlimit="10"/>
<path d="M17.3699 23.13C22.0257 23.13 25.7999 19.3558 25.7999 14.7C25.7999 10.0443 22.0257 6.27002 17.3699 6.27002C12.7142 6.27002 8.93994 10.0443 8.93994 14.7C8.93994 19.3558 12.7142 23.13 17.3699 23.13Z" stroke="#545163" stroke-width="2" stroke-miterlimit="10"/>
<path d="M17.3902 15.6899C16.7702 16.1399 16.1602 16.5999 15.5402 17.0499C14.1502 21.7399 12.7602 26.4399 11.3702 31.1299C10.1402 32.0499 8.91018 32.9599 7.68018 33.8799C14.1402 33.9199 20.6002 33.9599 27.0602 33.9999C25.9402 33.0399 24.8202 32.0899 23.6902 31.1299C22.2102 26.4699 20.7302 21.8099 19.2602 17.1599C18.6402 16.6699 18.0102 16.1799 17.3902 15.6899Z" fill="#7E7994"/>
<path d="M17.39 19.2898C19.3783 19.2898 20.99 17.6781 20.99 15.6898C20.99 13.7016 19.3783 12.0898 17.39 12.0898C15.4018 12.0898 13.79 13.7016 13.79 15.6898C13.79 17.6781 15.4018 19.2898 17.39 19.2898Z" fill="#ABB1C0"/>
<path d="M14.2102 27.2798C16.5102 27.8898 18.8202 28.4998 21.1202 29.1098C18.4702 29.8798 15.8202 30.6498 13.1602 31.4298C13.5102 30.0498 13.8602 28.6698 14.2002 27.2898L14.2102 27.2798Z" fill="#545163"/>
<path d="M21.7903 30.1399C19.6103 31.1099 17.4403 32.0899 15.2603 33.0599C18.0003 33.3899 20.7403 33.7199 23.4903 34.0499C22.9203 32.7399 22.3603 31.4399 21.7903 30.1299V30.1399Z" fill="#545163"/>
<path d="M16.0201 19.97C17.1501 20.6 18.2801 21.22 19.4101 21.85C17.9901 22.33 16.5701 22.81 15.1401 23.29C15.4301 22.18 15.7201 21.07 16.0201 19.96V19.97Z" fill="#545163"/>
<path d="M19.8502 23.3398C18.1302 24.0098 16.4102 24.6898 14.6802 25.3598C16.8202 25.9798 18.9502 26.6098 21.0902 27.2298C20.6802 25.9298 20.2602 24.6398 19.8502 23.3398Z" fill="#545163"/>
<path d="M27.0099 31.1299H8.56994C7.80779 31.1299 7.18994 31.7477 7.18994 32.5099V32.5799C7.18994 33.342 7.80779 33.9599 8.56994 33.9599H27.0099C27.7721 33.9599 28.3899 33.342 28.3899 32.5799V32.5099C28.3899 31.7477 27.7721 31.1299 27.0099 31.1299Z" fill="#7E7994"/>
<path d="M16.6901 15.4999C17.132 15.4999 17.4901 15.1417 17.4901 14.6999C17.4901 14.2581 17.132 13.8999 16.6901 13.8999C16.2483 13.8999 15.8901 14.2581 15.8901 14.6999C15.8901 15.1417 16.2483 15.4999 16.6901 15.4999Z" fill="#E6E6E6"/>
<path d="M20.6697 16.8297C22.7397 17.7597 24.8097 18.6897 26.8797 19.6097C26.7297 18.3997 26.5697 17.1897 26.4197 15.9897C28.7597 17.3797 31.0997 18.7697 33.4397 20.1497L29.2797 19.3797C29.1597 20.3497 29.0397 21.3197 28.9197 22.2897C26.1697 20.4697 23.4097 18.6497 20.6597 16.8197L20.6697 16.8297Z" fill="#7E7994"/>
<path d="M20.5295 12.8C22.3195 11.32 24.1095 9.83998 25.8995 8.35998C26.5095 9.30998 27.1295 10.25 27.7395 11.2C29.8195 8.53998 31.9095 5.87998 33.9895 3.22998C32.0495 4.50998 30.1095 5.79998 28.1695 7.07998C27.7495 5.95998 27.3395 4.83998 26.9195 3.72998C24.7895 6.75998 22.6495 9.78998 20.5195 12.82L20.5295 12.8Z" fill="#7E7994"/>
<path d="M13.3598 16.82C11.2798 17.75 9.20981 18.68 7.12981 19.61C7.27981 18.4 7.43981 17.19 7.58981 15.98C5.23981 17.37 2.8898 18.76 0.549805 20.15L4.71981 19.38C4.83981 20.35 4.95981 21.32 5.07981 22.3C7.83981 20.47 10.6098 18.65 13.3698 16.82H13.3598Z" fill="#7E7994"/>
<path d="M13.4698 12.8C11.6798 11.32 9.88977 9.83998 8.09977 8.35998C7.48977 9.30998 6.86977 10.25 6.25977 11.2C4.17977 8.53998 2.08977 5.87998 0.00976562 3.22998C1.94977 4.50998 3.88977 5.79998 5.82977 7.07998C6.24977 5.95998 6.65977 4.83998 7.07977 3.72998C9.20977 6.75998 11.3498 9.78998 13.4798 12.82L13.4698 12.8Z" fill="#7E7994"/>
</g>
<defs>
<clipPath id="clip0_286_275">
<rect width="34" height="34" fill="white"/>
</clipPath>
</defs>
</svg>
