<svg width="34" height="34" viewBox="0 0 34 34" fill="none" xmlns="http://www.w3.org/2000/svg">
<g clip-path="url(#clip0_286_277)">
<path d="M13.2897 12.1701C14.6297 11.0401 15.9497 9.96009 17.2597 8.95009C17.4097 8.83009 17.5997 8.79009 17.7897 8.82009L25.2397 10.1801C25.3697 10.2001 25.4997 10.1801 25.6197 10.1401C25.7997 9.85009 25.9697 9.55009 26.1497 9.26009C27.4297 12.2801 28.7097 15.3001 29.9797 18.3201C29.6397 18.5401 29.3097 18.7501 28.9697 18.9701C28.0897 19.0101 27.2097 19.0601 26.3397 19.1001C26.2197 19.1101 26.0297 19.1401 25.8297 19.2501C25.5997 19.3701 25.4497 19.5201 25.3697 19.6201C21.6497 23.5001 18.9397 26.3901 17.4497 28.1801C17.0697 28.6401 16.0297 29.9101 14.9597 29.7301C14.3997 29.6401 13.9797 29.1701 13.8397 29.0101C13.2897 28.3501 13.3097 27.6001 13.3197 27.4101C12.6197 27.8601 11.8097 27.9301 11.2897 27.5801C11.1797 27.5101 10.7997 27.1101 10.6197 26.6401C10.5597 26.4801 10.5097 26.3001 10.4997 26.0901C10.4897 25.9601 10.3497 25.8901 10.2297 25.9201C9.05967 26.2601 8.53967 26.0801 8.27967 25.8401C7.86967 25.4501 7.26967 25.0901 7.25967 23.9801C7.25967 23.7601 7.04967 23.5801 6.82967 23.6001C5.96967 23.6701 5.12967 23.2801 4.68967 22.5801C4.02967 21.5301 4.60967 20.3701 4.62967 20.3201C7.18967 17.6601 10.0697 14.9201 13.2897 12.1901V12.1701Z" fill="#7E7994"/>
<path d="M2.12988 14.7599C4.23988 12.8799 6.33988 10.9899 8.44988 9.10986C9.17988 9.52986 10.2799 10.0499 11.7099 10.3599C13.1699 10.6699 14.4099 10.6299 15.2599 10.5399C17.2699 11.6399 19.4299 12.9599 21.6699 14.5499C23.2699 15.6899 24.7299 16.8299 26.0399 17.9399C27.1199 18.5699 27.5499 19.7299 27.1999 20.5799C26.8999 21.2999 26.1399 21.5599 25.9799 21.6099C26.4699 22.3299 26.4399 23.2799 25.9099 23.9199C25.3199 24.6499 24.2199 24.8299 23.3699 24.2999C23.5999 25.1099 23.3399 25.9699 22.7199 26.4999C21.8699 27.2199 20.8099 26.9199 20.7399 26.8999C21.0099 27.6999 20.6899 28.5799 19.9799 29.0099C19.2799 29.4399 18.3599 29.3399 17.7699 28.7599L5.83988 20.0899C5.40988 19.7099 4.96988 19.2599 4.51988 18.7399C3.31988 17.3299 2.58988 15.8899 2.14988 14.7599H2.12988Z" fill="#545163"/>
<path d="M12.6599 12.7299C12.5299 12.3099 12.7999 11.8899 13.0199 11.5799C13.7199 10.5799 14.6799 9.65992 15.4999 8.97992C15.8399 8.68992 16.2599 8.50992 16.6999 8.48992C17.4199 8.44992 18.2199 8.44992 19.0799 8.51992C21.4799 8.70992 23.4299 9.33991 24.8199 9.93991C25.2699 9.71991 25.7099 9.48992 26.1599 9.26992C27.4799 12.2799 28.7899 15.2899 30.1099 18.2999C29.1499 18.5299 27.7499 18.6999 26.3499 18.1199C25.8799 17.9199 25.3599 17.4999 24.3399 16.6699C22.8399 15.4399 21.2599 14.2999 19.7699 13.0599C19.6099 12.9299 19.2499 12.6299 18.7199 12.5399C18.1599 12.4499 17.7399 12.6499 17.2199 12.8499C15.8299 13.4099 14.7799 13.8299 13.7699 13.5599C13.6199 13.5199 12.8299 13.3099 12.6599 12.7499V12.7299Z" fill="#7E7994"/>
<path d="M33.2199 17.6399C32.9899 20.7899 27.9499 21.1799 27.9399 16.8099L24.3099 10.1899C22.7199 9.18985 23.6999 6.90985 25.5999 7.45985L31.3299 5.67985C32.5199 4.56985 34.0999 5.49985 33.9999 6.81985L33.2199 17.6399Z" fill="#F7F7FA"/>
<path d="M-4.59813e-05 16.53C-0.180046 19.67 4.71995 20.71 5.33995 16.46L9.88995 10.27C11.49 9.44999 10.8 7.13999 8.87996 7.42999L3.42995 4.91999C2.38995 3.66999 0.709955 4.38999 0.629955 5.69999L-4.59813e-05 16.53Z" fill="#F7F7FA"/>
</g>
<defs>
<clipPath id="clip0_286_277">
<rect width="34" height="34" fill="white"/>
</clipPath>
</defs>
</svg>
