<svg width="34" height="34" viewBox="0 0 34 34" fill="none" xmlns="http://www.w3.org/2000/svg">
<g clip-path="url(#clip0_286_278)">
<path d="M1.66353 16.4043L3.3323 14.7356L19.0089 30.4121L16.8239 32.5971C16.0319 33.389 14.745 33.389 13.953 32.5971L1.66353 20.3076C0.588728 19.2328 0.588728 17.4791 1.66353 16.4043Z" fill="#7E7994"/>
<path d="M1.29778 13.6969L4.98887 10.0058L8.39006 13.4069C9.69113 14.708 9.69113 16.8293 8.39006 18.1304L6.30409 20.2164C4.99595 21.5245 2.87462 21.5245 1.56648 20.2164L1.29778 19.9477C-0.427564 18.2223 -0.427564 15.4222 1.29778 13.6969Z" fill="#7E7994"/>
<path d="M13.9994 26.3409L15.2934 25.0469C16.5945 23.7459 18.7158 23.7459 20.0169 25.0469L23.5524 28.5825L19.133 33.0019C17.8107 34.3242 15.6682 34.3171 14.353 33.0019L13.9994 32.6483C12.2599 30.9088 12.2599 28.0804 13.9994 26.3409Z" fill="#7E7994"/>
<path d="M18.0097 0H29.9597C32.1897 0 33.9997 1.81 33.9997 4.04V15.99C33.9997 18.22 32.1897 20.03 29.9597 20.03H13.9697V4.04C13.9697 1.81 15.7797 0 18.0097 0Z" fill="#545163"/>
<path d="M18.6298 1.04004H29.3398C31.3398 1.04004 32.9598 2.66004 32.9598 4.66004V15.37C32.9598 17.37 31.3398 18.99 29.3398 18.99H15.0098V4.66004C15.0098 2.66004 16.6298 1.04004 18.6298 1.04004Z" fill="#D3D0DD"/>
<path d="M28.35 3.81006H19.62C19.0125 3.81006 18.52 4.30254 18.52 4.91006V5.05006C18.52 5.65757 19.0125 6.15006 19.62 6.15006H28.35C28.9575 6.15006 29.45 5.65757 29.45 5.05006V4.91006C29.45 4.30254 28.9575 3.81006 28.35 3.81006Z" fill="#545163"/>
<path d="M28.35 8.8501H19.62C19.0125 8.8501 18.52 9.34259 18.52 9.9501V10.0901C18.52 10.6976 19.0125 11.1901 19.62 11.1901H28.35C28.9575 11.1901 29.45 10.6976 29.45 10.0901V9.9501C29.45 9.34259 28.9575 8.8501 28.35 8.8501Z" fill="#545163"/>
<path d="M28.35 13.8901H19.62C19.0125 13.8901 18.52 14.3826 18.52 14.9901V15.1301C18.52 15.7377 19.0125 16.2301 19.62 16.2301H28.35C28.9575 16.2301 29.45 15.7377 29.45 15.1301V14.9901C29.45 14.3826 28.9575 13.8901 28.35 13.8901Z" fill="#545163"/>
</g>
<defs>
<clipPath id="clip0_286_278">
<rect width="34" height="34" fill="white"/>
</clipPath>
</defs>
</svg>
