<svg width="34" height="34" viewBox="0 0 34 34" fill="none" xmlns="http://www.w3.org/2000/svg">
<g clip-path="url(#clip0_286_273)">
<path d="M17.8901 30.1097C25.5282 30.1097 31.7201 23.9178 31.7201 16.2797C31.7201 8.64161 25.5282 2.44971 17.8901 2.44971C10.252 2.44971 4.06006 8.64161 4.06006 16.2797C4.06006 23.9178 10.252 30.1097 17.8901 30.1097Z" fill="#545163"/>
<path d="M8.66328 20.1715C7.76689 19.1801 6.23657 19.1031 5.24521 19.9995C4.25385 20.8959 4.17686 22.4262 5.07325 23.4176L12.102 31.191C12.9984 32.1824 14.5288 32.2594 15.5201 31.363C16.5115 30.4666 16.5885 28.9363 15.6921 27.9449L8.66328 20.1715Z" fill="#7E7994"/>
<path d="M30.0764 9.26897L28.2691 9.74918C26.8547 10.125 26.0127 11.5763 26.3885 12.9908L26.8456 14.7111C27.2214 16.1256 28.6728 16.9676 30.0873 16.5918L31.8945 16.1115C33.309 15.7357 34.151 14.2844 33.7752 12.8699L33.3181 11.1496C32.9422 9.73512 31.4909 8.89314 30.0764 9.26897Z" fill="#BDB9CB"/>
<path d="M29.9104 23.2602C25.1504 22.7902 20.3804 22.3202 15.6204 21.8502C14.6704 21.7602 13.8804 21.0802 13.6304 20.1602L12.2104 14.8102C11.9704 13.8902 12.3204 12.9102 13.1004 12.3602C17.0004 9.59018 20.9004 6.81018 24.8104 4.04018C26.1104 3.12018 27.9304 3.77018 28.3404 5.32018L32.3504 20.4002C32.7604 21.9402 31.5004 23.4202 29.9204 23.2602H29.9104Z" fill="#BDB9CB"/>
<path d="M11.7452 13.0899L3.99414 15.1494L6.33355 23.9539L14.0846 21.8944L11.7452 13.0899Z" fill="#BDB9CB"/>
<path d="M28.2969 3.20862C28.0686 2.34926 27.1869 1.83771 26.3275 2.06605C25.4681 2.29439 24.9566 3.17614 25.1849 4.0355L30.2412 23.0652C30.4696 23.9246 31.3513 24.4361 32.2107 24.2078C33.07 23.9794 33.5816 23.0977 33.3532 22.2383L28.2969 3.20862Z" fill="#F7F7FA"/>
<path d="M11.1607 10.7459L9.41138 11.2107C8.39189 11.4816 7.78502 12.5276 8.05591 13.5471L10.6547 23.3278C10.9256 24.3472 11.9716 24.9541 12.9911 24.6832L14.7404 24.2184C15.7599 23.9475 16.3668 22.9015 16.0959 21.882L13.4971 12.1014C13.2262 11.0819 12.1802 10.475 11.1607 10.7459Z" fill="#F7F7FA"/>
<path d="M3.95435 14.0344L3.96401 14.0319C4.17664 13.9754 4.38716 14.1057 4.44109 14.3086L7.14 24.4662C7.1965 24.6788 7.06619 24.8893 6.86323 24.9433C4.10881 25.6751 1.28307 24.0358 0.551207 21.2814L0.299547 20.3342C-0.429752 17.5895 1.20959 14.7637 3.95435 14.0344Z" fill="#F7F7FA"/>
<path d="M14.2688 15.0245L3.86963 17.7876L4.91479 21.7211L15.314 18.958L14.2688 15.0245Z" fill="#F7F7FA"/>
</g>
<defs>
<clipPath id="clip0_286_273">
<rect width="34" height="34" fill="white"/>
</clipPath>
</defs>
</svg>
