<svg width="34" height="34" viewBox="0 0 34 34" fill="none" xmlns="http://www.w3.org/2000/svg">
<path d="M26.65 4.00977H7.35004C5.79812 4.00977 4.54004 5.26785 4.54004 6.81977V31.1898C4.54004 32.7417 5.79812 33.9998 7.35004 33.9998H26.65C28.202 33.9998 29.46 32.7417 29.46 31.1898V6.81977C29.46 5.26785 28.202 4.00977 26.65 4.00977Z" fill="#7E7994"/>
<path d="M26.0201 4.91016H7.9801C6.52759 4.91016 5.3501 6.08765 5.3501 7.54016V30.4602C5.3501 31.9127 6.52759 33.0902 7.9801 33.0902H26.0201C27.4726 33.0902 28.6501 31.9127 28.6501 30.4602V7.54016C28.6501 6.08765 27.4726 4.91016 26.0201 4.91016Z" fill="#D3D0DD"/>
<path d="M19.6999 0H14.2999C13.9599 0 13.6899 0.270001 13.6899 0.610001V4.73C13.6899 5.07 13.9599 5.34 14.2999 5.34H19.6999C20.0399 5.34 20.3099 5.07 20.3099 4.73V0.610001C20.3099 0.270001 20.0399 0 19.6999 0ZM18.2399 3.53C18.2399 3.61 18.1799 3.67 18.0999 3.67H15.9099C15.8299 3.67 15.7699 3.61 15.7699 3.53V1.72C15.7699 1.64 15.8299 1.58 15.9099 1.58H18.0999C18.1799 1.58 18.2399 1.64 18.2399 1.72V3.53Z" fill="#545163"/>
<path d="M22.2901 2.66992H11.7201C11.3556 2.66992 11.0601 2.96542 11.0601 3.32993V5.47992C11.0601 5.84443 11.3556 6.13992 11.7201 6.13992H22.2901C22.6546 6.13992 22.9501 5.84443 22.9501 5.47992V3.32993C22.9501 2.96542 22.6546 2.66992 22.2901 2.66992Z" fill="#545163"/>
<path fill-rule="evenodd" clip-rule="evenodd" d="M14.5604 8.37033C14.864 8.65218 14.8815 9.12673 14.5997 9.43026L11.0897 13.2103C10.9535 13.357 10.7642 13.4431 10.5641 13.4495C10.364 13.456 10.1696 13.3821 10.0243 13.2444C9.99546 13.2171 9.96665 13.1898 9.93785 13.1625C9.39798 12.6511 8.86386 12.1451 8.3295 11.6298C8.03133 11.3423 8.02269 10.8675 8.31022 10.5693C8.59774 10.2712 9.07253 10.2625 9.3707 10.55C9.74769 10.9136 10.1248 11.2727 10.5061 11.6344L13.5005 8.40959C13.7824 8.10605 14.2569 8.08848 14.5604 8.37033Z" fill="#545163"/>
<path fill-rule="evenodd" clip-rule="evenodd" d="M20.4199 24.7895C20.7128 24.4966 21.1876 24.4966 21.4805 24.7895L25.4605 28.7695C25.7534 29.0624 25.7534 29.5373 25.4605 29.8302C25.1676 30.123 24.6928 30.123 24.3999 29.8302L20.4199 25.8502C20.127 25.5573 20.127 25.0824 20.4199 24.7895Z" fill="#545163"/>
<path fill-rule="evenodd" clip-rule="evenodd" d="M25.4605 24.7895C25.7534 25.0824 25.7534 25.5573 25.4605 25.8502L21.4805 29.8302C21.1876 30.123 20.7128 30.123 20.4199 29.8302C20.127 29.5373 20.127 29.0624 20.4199 28.7695L24.3999 24.7895C24.6928 24.4966 25.1676 24.4966 25.4605 24.7895Z" fill="#545163"/>
<g opacity="0.25">
<path fill-rule="evenodd" clip-rule="evenodd" d="M10.8399 25.5801C9.88441 25.5801 9.10986 26.3546 9.10986 27.3101C9.10986 28.2655 9.88441 29.0401 10.8399 29.0401C11.7953 29.0401 12.5699 28.2655 12.5699 27.3101C12.5699 26.3546 11.7953 25.5801 10.8399 25.5801ZM7.60986 27.3101C7.60986 25.5262 9.05598 24.0801 10.8399 24.0801C12.6237 24.0801 14.0699 25.5262 14.0699 27.3101C14.0699 29.094 12.6237 30.5401 10.8399 30.5401C9.05598 30.5401 7.60986 29.094 7.60986 27.3101Z" fill="#545163"/>
<path fill-rule="evenodd" clip-rule="evenodd" d="M20.0893 16.1498C20.3822 15.857 20.8571 15.857 21.15 16.1498L22.77 17.7698L22.2396 18.3002L22.77 17.7698C23.3625 18.3624 23.6896 19.164 23.6896 20.0002V21.5402C23.6896 21.9544 23.3538 22.2902 22.9396 22.2902C22.5254 22.2902 22.1896 21.9544 22.1896 21.5402V20.0002C22.1896 19.5563 22.0167 19.1379 21.7093 18.8305L20.0893 17.2105C19.7964 16.9176 19.7964 16.4427 20.0893 16.1498Z" fill="#545163"/>
<path fill-rule="evenodd" clip-rule="evenodd" d="M18.7238 8.65373C19.0146 8.94875 19.0111 9.42362 18.7161 9.71436L18.7153 9.71516C18.1898 10.233 17.6629 10.7523 17.1356 11.2675C17.2958 11.4623 17.4566 11.6572 17.618 11.8527L17.6189 11.8537C17.9258 12.2256 18.2348 12.5998 18.5415 12.9769C18.8028 13.2983 18.7542 13.7707 18.4329 14.032C18.1115 14.2934 17.6391 14.2448 17.3778 13.9234C17.0748 13.5509 16.769 13.1805 16.4612 12.8076L16.4604 12.8066C16.1534 12.4348 15.8445 12.0605 15.5378 11.6834C15.2925 11.3819 15.3183 10.9429 15.5972 10.6721C16.2848 10.0044 16.9728 9.32632 17.6632 8.64599C17.9582 8.35524 18.4331 8.35871 18.7238 8.65373Z" fill="#545163"/>
</g>
<path fill-rule="evenodd" clip-rule="evenodd" d="M16.9998 10.25H20.4134C22.8146 10.25 24.0625 13.1117 22.4285 14.8712L12.5494 25.5103L11.4502 24.4897L21.3294 13.8506C22.072 13.0508 21.5048 11.75 20.4134 11.75H16.9998V10.25Z" fill="#B3B0BE"/>
</svg>
