<svg width="34" height="34" viewBox="0 0 34 34" fill="none" xmlns="http://www.w3.org/2000/svg">
<g clip-path="url(#clip0_286_272)">
<path d="M22.5198 15.1399C20.7998 14.3299 18.9598 13.7499 17.0298 13.4199C16.7898 13.8499 16.5198 14.4199 16.3298 14.8799C14.2798 14.5699 12.2598 14.5699 10.2498 14.8799C10.0598 14.4199 9.77984 13.8499 9.53984 13.4199C7.60984 13.7499 5.76984 14.3399 4.04984 15.1499C0.579839 20.3999 -0.360159 25.5099 0.109841 30.5499C2.40984 32.2699 4.63984 33.3099 6.83984 33.9999C7.37984 33.2499 7.85984 32.4599 8.27984 31.6299C7.48984 31.3299 6.72984 30.9599 6.00984 30.5299C6.19984 30.3899 6.38984 30.2399 6.56984 30.0899C10.9398 32.1399 15.6998 32.1399 20.0198 30.0899C20.1998 30.2399 20.3898 30.3899 20.5798 30.5299C19.8598 30.9599 19.0998 31.3399 18.3098 31.6399C18.7298 32.4699 19.2098 33.2699 19.7498 34.0099C21.9498 33.3299 24.1798 32.2799 26.4798 30.5599C27.0298 24.7099 25.5398 19.6499 22.5298 15.1499L22.5198 15.1399ZM8.87984 27.4499C7.56984 27.4499 6.48984 26.2199 6.48984 24.7299C6.48984 23.2399 7.53984 22.0099 8.87984 22.0099C10.2198 22.0099 11.2898 23.2399 11.2698 24.7299C11.2698 26.2199 10.2198 27.4499 8.87984 27.4499ZM17.7098 27.4499C16.3998 27.4499 15.3198 26.2199 15.3198 24.7299C15.3198 23.2399 16.3698 22.0099 17.7098 22.0099C19.0498 22.0099 20.1198 23.2399 20.0998 24.7299C20.0998 26.2199 19.0498 27.4499 17.7098 27.4499Z" fill="#D6DAE3"/>
<path d="M27.8399 4.22998H24.6299V15.21H27.8399V4.22998Z" fill="#F7F7FA"/>
<path d="M18.4792 7.7546L20.749 10.0244L28.5131 2.26038L26.2432 -0.00943002L18.4792 7.7546Z" fill="#F7F7FA"/>
<path d="M31.7326 10.0325L34.0024 7.7627L26.2384 -0.00133669L23.9686 2.26848L31.7326 10.0325Z" fill="#F7F7FA"/>
<path d="M13.3298 6.7998H11.7998V12.0198H13.3298V6.7998Z" fill="#7E7994"/>
<path d="M8.87516 8.47282L9.95703 9.55469L13.6481 5.86359L12.5663 4.78172L8.87516 8.47282Z" fill="#7E7994"/>
<path d="M15.1676 9.56039L16.2495 8.47852L12.5584 4.78742L11.4765 5.86929L15.1676 9.56039Z" fill="#7E7994"/>
<path d="M31.0801 18.1597H29.5601V23.3597H31.0801V18.1597Z" fill="#7E7994"/>
<path d="M26.6537 19.8319L27.7285 20.9067L31.4055 17.2298L30.3307 16.155L26.6537 19.8319Z" fill="#7E7994"/>
<path d="M32.9237 20.9044L33.9985 19.8296L30.3216 16.1526L29.2468 17.2274L32.9237 20.9044Z" fill="#7E7994"/>
</g>
<defs>
<clipPath id="clip0_286_272">
<rect width="34" height="34" fill="white"/>
</clipPath>
</defs>
</svg>
