<svg width="34" height="34" viewBox="0 0 34 34" fill="none" xmlns="http://www.w3.org/2000/svg">
<g clip-path="url(#clip0_286_279)">
<path d="M6.10998 0.160156H27.46C28.79 0.160156 29.87 1.24016 29.87 2.57016V32.1302C29.87 33.1702 29.03 34.0102 27.99 34.0102H6.10998C5.06998 34.0102 4.22998 33.1702 4.22998 32.1302V2.04016C4.22998 1.00016 5.06998 0.160156 6.10998 0.160156Z" fill="#545163"/>
<path d="M26.7599 32.5701H7.33994C6.42994 32.5701 5.68994 31.8301 5.68994 30.9201V3.2501C5.68994 2.3401 6.42994 1.6001 7.33994 1.6001H18.8899C22.0599 3.8401 25.2399 6.0901 28.4099 8.3301C28.4099 15.8601 28.4099 23.3901 28.4099 30.9201C28.4099 31.8301 27.6699 32.5701 26.7599 32.5701Z" fill="#A9A5B7"/>
<g opacity="0.6">
<path d="M23.7499 11.5H10.3599C10.0948 11.5 9.87988 11.7149 9.87988 11.98V15.07C9.87988 15.3351 10.0948 15.55 10.3599 15.55H23.7499C24.015 15.55 24.2299 15.3351 24.2299 15.07V11.98C24.2299 11.7149 24.015 11.5 23.7499 11.5Z" fill="#F7F7FA"/>
<path d="M23.7499 17.6499H10.3599C10.0948 17.6499 9.87988 17.8648 9.87988 18.1299V21.2199C9.87988 21.485 10.0948 21.6999 10.3599 21.6999H23.7499C24.015 21.6999 24.2299 21.485 24.2299 21.2199V18.1299C24.2299 17.8648 24.015 17.6499 23.7499 17.6499Z" fill="#F7F7FA"/>
<path d="M23.7499 23.8101H10.3599C10.0948 23.8101 9.87988 24.025 9.87988 24.2901V27.3801C9.87988 27.6452 10.0948 27.8601 10.3599 27.8601H23.7499C24.015 27.8601 24.2299 27.6452 24.2299 27.3801V24.2901C24.2299 24.025 24.015 23.8101 23.7499 23.8101Z" fill="#F7F7FA"/>
</g>
<path d="M15.883 31.2193L15.5195 30.9058L13.4882 33.2607L13.8517 33.5742L15.883 31.2193Z" fill="#7E7994"/>
<path d="M30.9601 15.9903L28.3101 13.7003L30.6001 11.0503C30.6001 11.0503 31.8501 12.1303 31.8801 12.1503C31.9101 12.1703 33.2301 13.3203 33.2601 13.3403C32.5001 14.2203 31.7301 15.1103 30.9701 15.9903H30.9601Z" fill="#7E7994"/>
<path d="M20.2702 29.5901L16.4102 26.2601L27.0902 13.9001C28.1502 12.6701 29.8502 12.3901 30.8702 13.2701C31.9802 14.2301 31.9502 16.0801 30.8002 17.4101L20.2802 29.6001L20.2702 29.5901Z" fill="#F7F7FA"/>
<path d="M16.8499 25.7502L20.7099 29.0802C17.9399 32.0302 15.1899 33.2302 14.3999 32.5602C13.6399 31.9102 14.3399 29.2102 16.4099 26.2502C16.5599 26.0802 16.6999 25.9102 16.8499 25.7402V25.7502Z" fill="#F7F7FA"/>
<path d="M21.2624 27.4416L18.3925 24.9662C17.9074 24.5477 17.1749 24.6018 16.7565 25.0869L16.6063 25.261C16.1878 25.7462 16.2419 26.4786 16.727 26.8971L19.5969 29.3725C20.082 29.791 20.8145 29.7369 21.2329 29.2518L21.3831 29.0777C21.8016 28.5925 21.7475 27.8601 21.2624 27.4416Z" fill="#7E7994"/>
<path d="M18.8999 1.59033V8.32033H28.4199C25.2499 6.08033 22.0699 3.83033 18.8999 1.59033Z" fill="#F7F7FA"/>
</g>
<defs>
<clipPath id="clip0_286_279">
<rect width="34" height="34" fill="white"/>
</clipPath>
</defs>
</svg>
