<svg width="34" height="34" viewBox="0 0 34 34" fill="none" xmlns="http://www.w3.org/2000/svg">
<path d="M8.16961 4.68994H25.8296C29.0396 4.68994 31.6496 7.29994 31.6496 10.5099V27.2599C31.6496 29.1499 30.1096 30.6899 28.2196 30.6899H5.62961C3.81961 30.6899 2.34961 29.2199 2.34961 27.4099V10.5099C2.34961 7.29994 4.95961 4.68994 8.16961 4.68994Z" fill="#545163"/>
<path d="M31.9297 10.5399H1.6297C0.849702 10.5399 0.319702 9.74994 0.609702 9.02994L2.3497 4.68994H31.6497C32.1797 5.99994 32.6997 7.30994 33.2297 8.60994C33.5997 9.52994 32.9197 10.5299 31.9297 10.5299V10.5399Z" fill="#7E7994"/>
<path d="M23.5497 15.7099C23.0697 15.9199 22.5497 16.0699 22.0097 16.1299C22.5597 15.7999 22.9897 15.2699 23.1897 14.6399C22.6697 14.9499 22.0997 15.1699 21.4797 15.2899C20.9897 14.7699 20.2897 14.4399 19.5197 14.4399C18.0397 14.4399 16.8297 15.6399 16.8297 17.1299C16.8297 17.3399 16.8497 17.5499 16.8997 17.7399C14.6697 17.6299 12.6797 16.5599 11.3597 14.9299C11.1297 15.3299 10.9997 15.7899 10.9997 16.2799C10.9997 17.2099 11.4697 18.0399 12.1997 18.5199C11.7597 18.5099 11.3397 18.3899 10.9797 18.1799C10.9797 18.1899 10.9797 18.1999 10.9797 18.2099C10.9797 19.5099 11.9097 20.5999 13.1397 20.8499C12.9097 20.9099 12.6797 20.9399 12.4297 20.9399C12.2597 20.9399 12.0897 20.9199 11.9197 20.8899C12.2597 21.9599 13.2497 22.7399 14.4297 22.7599C13.5097 23.4799 12.3497 23.9099 11.0897 23.9099C10.8697 23.9099 10.6597 23.8999 10.4497 23.8699C11.6397 24.6299 13.0497 25.0799 14.5697 25.0799C19.5097 25.0799 22.2197 20.9799 22.2197 17.4299C22.2197 17.3099 22.2197 17.1999 22.2197 17.0799C22.7497 16.6999 23.1997 16.2299 23.5597 15.6899L23.5497 15.7099Z" fill="#F7F7FA"/>
</svg>
