<svg width="112" height="40" viewBox="0 0 112 40" fill="none" xmlns="http://www.w3.org/2000/svg">
<path fill-rule="evenodd" clip-rule="evenodd" d="M26.8296 7.20068H21.2244V32.5202H26.8296V7.20068ZM72.6039 7.20068H66.9986V32.5202H72.6039V19.9612L73.952 18.8361H78.731V32.5202H84.3363V16.9656L81.0649 13.8759H74.3L72.6039 15.4506V7.20068ZM15.6705 8.76935H0.368347V32.5202H15.8481L19.1195 29.4304V22.8064L16.6894 20.5113L18.9428 18.383V11.8248L15.6705 8.76935ZM6.15031 18.5485V13.3291H13.1962V17.533L12.121 18.5485H6.15031ZM34.7256 13.8759H29.1203V29.4304L32.3917 32.5202H39.4419L41.206 30.8267V32.5202H46.2459V13.8759H40.6406V26.6024L39.5039 27.56H34.7256V13.8759ZM61.4788 13.8759H51.5666L48.3314 16.9665V21.6006L59.4983 27.3413V28.4611H53.5126V26.3918H48.2254V29.4304L51.4968 32.5202H61.7969L65.0683 29.4304V24.7951L53.866 19.0545V17.9349H59.4277V20.2045H64.7502V16.9656L61.4788 13.8759ZM92.3032 13.8759H86.6979V32.5202H92.3032V13.8759ZM99.8432 13.8759H94.8034V39.3956H100.409V32.5202H108.728L112 29.4304V16.9656L108.728 13.8759H101.607L99.8432 15.5693V13.8759ZM100.409 19.7936L101.545 18.8361H106.359V27.6601H100.409V19.7936ZM6.15031 27.9605V22.6409H12.2953L13.3375 23.6542V27.9605H6.15031Z" fill="#F7F7FA"/>
<path d="M89.3632 11.4293C89.3632 8.49796 91.9279 6.12084 95.0905 6.12084C91.9279 6.12084 89.3632 3.7438 89.3632 0.8125C89.3632 3.7438 86.7985 6.12084 83.6359 6.12084C86.7985 6.12084 89.3632 8.49796 89.3632 11.4293Z" fill="#16BAFF"/>
</svg>
