<svg width="31" height="30" viewBox="0 0 31 30" fill="none" xmlns="http://www.w3.org/2000/svg">
<path fill-rule="evenodd" clip-rule="evenodd" d="M0 0.919922H23.156H23.1572L30.2491 7.59249V15.1619H23.2991C21.932 10.4954 17.3886 7.06735 11.9937 7.06735H6.52781V12.2234C6.52781 17.296 10.1678 21.5697 15.1239 22.8582V29.4039H7.0919L0 22.7313V0.919922ZM30.2734 29.3916V25.0266C30.2734 22.6222 28.198 20.6694 25.6425 20.6694C23.0869 20.6694 21.0115 22.6222 21.0115 25.0266V25.0344C21.0115 27.4388 23.0869 29.3916 25.6425 29.3916H30.2734Z" fill="url(#paint0_linear_579_3711)"/>
<path opacity="0.35" d="M6.52781 0.919922H0V7.06735H6.52781V0.919922Z" fill="#F7F7FA"/>
<defs>
<linearGradient id="paint0_linear_579_3711" x1="-1.1773" y1="0.939007" x2="28.4283" y2="31.2266" gradientUnits="userSpaceOnUse">
<stop stop-color="#07B5FF"/>
<stop offset="0.307604" stop-color="#07B5FF"/>
<stop offset="0.475074" stop-color="#07B5FF"/>
<stop offset="0.728698" stop-color="#6FD4FF"/>
<stop offset="0.801097" stop-color="#40C6FF"/>
<stop offset="1" stop-color="#08B6FF"/>
</linearGradient>
</defs>
</svg>
